#N canvas 365 334 498 406 10;
#X obj 133 30 inlet;
#X obj 139 368 outlet~;
#X floatatom 339 64 5 0 0 0 - - -, f 5;
#X obj 324 272 shot 4000;
#X obj 264 304 shot 2500;
#X obj 345 304 shot 3500;
#X obj 37 231 bass-drum;
#X text 56 4 http://computermusicresource.com/GM.Percussion.KeyMap.html
;
#X obj 149 192 snare-drum;
#X obj 81 85 route 93;
#X obj 347 245 shot 5000;
#N canvas 65 89 450 398 hh 0;
#X obj 179 28 inlet;
#X obj 281 168 noise~;
#X obj 179 50 select 0;
#X obj 231 100 / 127;
#X obj 186 180 vline~;
#X obj 186 202 *~;
#X obj 186 224 *~;
#X obj 181 334 outlet~;
#X obj 298 123 print;
#X msg 165 109 0 0;
#X obj 186 246 bp~ 5000 1;
#X msg 232 143 \$1 4 \, 0 20 4;
#X connect 0 0 2 0;
#X connect 1 0 6 1;
#X connect 2 0 9 0;
#X connect 2 1 3 0;
#X connect 3 0 11 0;
#X connect 4 0 5 0;
#X connect 4 0 5 1;
#X connect 5 0 6 0;
#X connect 6 0 10 0;
#X connect 9 0 4 0;
#X connect 10 0 7 0;
#X connect 11 0 4 0;
#X restore 234 212 pd hh;
#N canvas 65 97 450 300 bd1 0;
#X obj 172 37 inlet;
#X obj 172 59 select 0;
#X obj 224 109 / 127;
#X obj 179 189 vline~;
#X obj 179 211 *~;
#X obj 179 233 *~;
#X obj 174 343 outlet~;
#X obj 291 132 print;
#X msg 158 118 0 0;
#X obj 285 191 osc~ 250;
#X msg 225 152 \$1 0 \, 0 200 0;
#X connect 0 0 1 0;
#X connect 1 0 8 0;
#X connect 1 1 2 0;
#X connect 2 0 10 0;
#X connect 3 0 4 0;
#X connect 3 0 4 1;
#X connect 4 0 5 0;
#X connect 5 0 6 0;
#X connect 8 0 3 0;
#X connect 9 0 5 1;
#X connect 10 0 3 0;
#X restore 283 201 pd bd1;
#N canvas 65 93 450 300 crash 1;
#X obj 189 25 inlet;
#X obj 291 165 noise~;
#X obj 189 47 select 0;
#X obj 241 97 / 127;
#X obj 196 177 vline~;
#X obj 196 221 *~;
#X obj 191 331 outlet~;
#X obj 308 120 print;
#X msg 175 106 0 0;
#X obj 196 199 pow~ 10;
#X obj 194 243 hip~ 800 10;
#X msg 242 140 \$1 0 \, 0 2200 0;
#X connect 0 0 2 0;
#X connect 1 0 5 1;
#X connect 2 0 8 0;
#X connect 2 1 3 0;
#X connect 3 0 11 0;
#X connect 4 0 9 0;
#X connect 5 0 10 0;
#X connect 8 0 4 0;
#X connect 9 0 5 0;
#X connect 10 0 6 0;
#X connect 11 0 4 0;
#X restore 366 183 pd crash;
#X obj 133 139 route 35 38 42 36 57;
#X connect 0 0 9 0;
#X connect 3 0 1 0;
#X connect 4 0 1 0;
#X connect 5 0 1 0;
#X connect 6 0 1 0;
#X connect 8 0 1 0;
#X connect 9 1 14 0;
#X connect 10 0 1 0;
#X connect 11 0 1 0;
#X connect 12 0 1 0;
#X connect 13 0 1 0;
#X connect 14 0 6 0;
#X connect 14 1 8 0;
#X connect 14 2 11 0;
#X connect 14 3 12 0;
#X connect 14 4 13 0;
#X connect 14 5 2 0;
