#N canvas 463 88 1383 939 10;
#X obj 231 428 dac~;
#X obj 104 105 midipatch;
#X obj 104 60 bng 15 250 50 0 empty empty empty 17 7 0 10 -262144 -1
-1;
#X obj 244 397 *~ 0.5;
#X obj 700 -97 pgmin;
#N canvas 0 50 450 250 (subpatch) 0;
#X array pgm 17 float 2;
#X coords 1 15 16 -1 100 100 1 0 0;
#X restore 485 26 graph;
#X obj 769 60 tabwrite pgm;
#X obj 642 180 tabread pgm;
#X msg 635 110 1 \, 2 \, 3 \, 4 \, 5 \, 6 \, 7 \, 8 \, 9 \, 10 \, 11
\, 12 \, 13 \, 14 \, 15 \, 16;
#X obj 610 142 t f f;
#X symbolatom 30 836 10 0 0 0 - - -, f 10;
#X obj 610 566 pack f s;
#X obj 30 813 symbol;
#X symbolatom 114 834 10 0 0 0 - - -, f 10;
#X obj 114 811 symbol;
#X symbolatom 198 837 10 0 0 0 - - -, f 10;
#X obj 198 814 symbol;
#X obj 562 655 route 1 2 3 4 5 6 7 8 9 10 11 12 13 14 15 16;
#X symbolatom 282 837 10 0 0 0 - - -, f 10;
#X obj 282 814 symbol;
#X symbolatom 363 837 10 0 0 0 - - -, f 10;
#X obj 363 814 symbol;
#X symbolatom 447 835 10 0 0 0 - - -, f 10;
#X obj 447 812 symbol;
#X symbolatom 531 838 10 0 0 0 - - -, f 10;
#X obj 531 815 symbol;
#X symbolatom 615 838 10 0 0 0 - - -, f 10;
#X obj 615 815 symbol;
#X symbolatom 701 838 10 0 0 0 - - -, f 10;
#X obj 701 815 symbol;
#X symbolatom 785 836 10 0 0 0 - - -, f 10;
#X obj 785 813 symbol;
#X symbolatom 869 839 10 0 0 0 - - -, f 10;
#X obj 869 816 symbol;
#X symbolatom 953 839 10 0 0 0 - - -, f 10;
#X obj 953 816 symbol;
#X symbolatom 1034 839 10 0 0 0 - - -, f 10;
#X obj 1034 816 symbol;
#X symbolatom 1118 837 10 0 0 0 - - -, f 10;
#X obj 1118 814 symbol;
#X symbolatom 1202 840 10 0 0 0 - - -, f 10;
#X obj 1202 817 symbol;
#X symbolatom 1286 840 10 0 0 0 - - -, f 10;
#X obj 1286 817 symbol;
#X obj 622 318 symbol piano;
#X obj 658 377 symbol organ;
#X obj 677 405 symbol guitar;
#X obj 641 346 symbol chroma;
#X obj 688 440 symbol bass;
#X obj 700 467 symbol cords;
#X obj 722 502 symbol pad;
#X obj 733 536 symbol brass;
#X obj 699 279 select 0 1 2 3 4 5 6 7 8 9 10 11 12 13 14 15;
#X obj 840 334 symbol wood;
#X obj 859 362 symbol flute;
#X obj 876 393 symbol synth-solo;
#X obj 895 421 symbol synth-set;
#X obj 911 452 symbol synth-fx;
#X obj 918 483 symbol world;
#X obj 936 521 symbol percussion;
#X obj 938 572 symbol sounds;
#X obj 1051 422 bang;
#X obj 1101 535 symbol ???;
#X obj 56 243 notein;
#X obj 106 384 tabread pgm;
#X obj 34 389 t b f;
#X obj 39 772 dac~;
#X obj 37 591 drum;
#X obj 662 -63 swap;
#X obj 649 -33 pack f f;
#X text 750 -81 swap to have channel \, program;
#X obj 649 -11 route 10;
#X msg 649 13 -1;
#X obj 702 13 unpack f f;
#X obj 36 531 route -1 0 1 2 3 4 5 6 7 8 9 10 11 12 13 14 15;
#X obj 38 508 pack f f f;
#X obj 35 446 f;
#X obj 769 36 >> 3;
#N canvas 65 109 450 441 bass 0;
#X obj 152 58 inlet;
#X obj 152 80 unpack f f;
#X obj 204 144 mtof;
#X obj 204 220 osc~;
#X obj 122 160 / 127;
#X obj 75 228 vline~;
#X obj 75 250 *~;
#X obj 76 339 *~;
#X obj 77 404 outlet~;
#X obj 94 133 select 0;
#X msg 54 35 70 127;
#X msg 48 68 70 0;
#X msg 39 159 0 500;
#X obj 76 369 cos~;
#X msg 110 200 \$1 5 \, 0.7 300 10;
#X obj 231 177 / 2;
#X obj 165 263 *~ 2.5;
#X connect 0 0 1 0;
#X connect 1 0 2 0;
#X connect 1 1 9 0;
#X connect 2 0 15 0;
#X connect 3 0 16 0;
#X connect 4 0 14 0;
#X connect 5 0 6 0;
#X connect 5 0 6 1;
#X connect 6 0 7 0;
#X connect 7 0 13 0;
#X connect 9 0 12 0;
#X connect 9 1 4 0;
#X connect 10 0 1 0;
#X connect 11 0 1 0;
#X connect 12 0 5 0;
#X connect 13 0 8 0;
#X connect 14 0 5 0;
#X connect 15 0 3 0;
#X connect 16 0 7 1;
#X restore 160 583 pd bass;
#N canvas 65 93 450 515 base 0;
#X obj 152 58 inlet;
#X obj 152 80 unpack f f;
#X obj 204 144 mtof;
#X obj 204 220 osc~;
#X obj 122 160 / 127;
#X obj 75 228 vline~;
#X obj 75 250 *~;
#X obj 74 367 *~;
#X obj 75 407 outlet~;
#X obj 94 133 select 0;
#X msg 54 35 70 127;
#X msg 48 68 70 0;
#X obj 221 328 cos~;
#X obj 231 177 * 1;
#X msg 39 159 0 300;
#X obj 202 254 *~ 3.25;
#X obj 319 183 vsl 15 128 0.2 20 1 0 empty empty empty 0 -9 0 10 -262144
-1 -1 0 1;
#X floatatom 319 319 5 0 0 0 - - -, f 5;
#X obj 221 350 lop~ 4000;
#X msg 110 200 \$1 5 \, 0 300 10;
#X connect 0 0 1 0;
#X connect 1 0 2 0;
#X connect 1 1 9 0;
#X connect 2 0 13 0;
#X connect 3 0 15 0;
#X connect 3 0 7 1;
#X connect 4 0 19 0;
#X connect 5 0 6 0;
#X connect 5 0 6 1;
#X connect 6 0 7 0;
#X connect 7 0 8 0;
#X connect 9 0 14 0;
#X connect 9 1 4 0;
#X connect 10 0 1 0;
#X connect 11 0 1 0;
#X connect 12 0 18 0;
#X connect 13 0 3 0;
#X connect 14 0 5 0;
#X connect 15 0 12 0;
#X connect 16 0 15 1;
#X connect 16 0 17 0;
#X connect 19 0 5 0;
#X restore 76 593 pd base;
#N canvas 65 85 450 597 flute 0;
#X obj 152 58 inlet;
#X obj 152 80 unpack f f;
#X obj 204 144 mtof;
#X obj 204 220 osc~;
#X obj 122 160 / 127;
#X obj 75 228 vline~;
#X obj 75 250 *~;
#X obj 76 339 *~;
#X obj 65 462 outlet~;
#X obj 94 133 select 0;
#X msg 54 35 70 127;
#X msg 48 68 70 0;
#X obj 231 177 / 2;
#X obj 286 198 noise~;
#X obj 73 391 *~ 4;
#X obj 73 413 clip~ -1 1;
#X obj 276 165 * 4;
#X obj 329 173 * 2.35;
#X obj 130 266 *~ 0.25;
#X obj 221 272 bp~ 4000 40;
#X obj 312 272 bp~ 6000 60;
#X msg 38 159 0 10;
#X msg 111 200 \$1 5 \, 0 150 10;
#X connect 0 0 1 0;
#X connect 1 0 2 0;
#X connect 1 1 9 0;
#X connect 2 0 12 0;
#X connect 2 0 16 0;
#X connect 3 0 18 0;
#X connect 4 0 22 0;
#X connect 5 0 6 0;
#X connect 5 0 6 1;
#X connect 6 0 7 0;
#X connect 7 0 14 0;
#X connect 9 0 21 0;
#X connect 9 1 4 0;
#X connect 10 0 1 0;
#X connect 11 0 1 0;
#X connect 12 0 3 0;
#X connect 13 0 19 0;
#X connect 13 0 20 0;
#X connect 14 0 15 0;
#X connect 15 0 8 0;
#X connect 16 0 17 0;
#X connect 16 0 19 1;
#X connect 17 0 20 1;
#X connect 18 0 7 1;
#X connect 19 0 7 1;
#X connect 20 0 7 1;
#X connect 21 0 5 0;
#X connect 22 0 5 0;
#X restore 248 586 pd flute;
#X obj 104 158 synth;
#X obj 123 188 synth;
#X obj 142 212 synth;
#X obj 161 234 synth;
#X obj 184 162 synth;
#X obj 206 192 synth;
#X obj 226 216 synth;
#X obj 245 238 synth;
#X obj 264 161 synth;
#X obj 302 215 synth;
#X obj 321 237 synth;
#X obj 346 158 synth;
#X obj 365 188 synth;
#X obj 384 212 synth;
#X obj 403 234 synth;
#N canvas 65 93 450 482 lead 1;
#X obj 152 58 inlet;
#X obj 152 80 unpack f f;
#X obj 204 144 mtof;
#X obj 230 227 osc~;
#X obj 122 160 / 127;
#X obj 75 228 vline~;
#X obj 75 250 *~;
#X obj 76 339 *~;
#X obj 68 455 outlet~;
#X obj 94 133 select 0;
#X msg 54 35 70 127;
#X msg 48 68 70 0;
#X msg 39 159 0 500;
#X obj 76 369 cos~;
#X msg 110 200 \$1 5 \, 0.2 300 10;
#X obj 197 287 *~ 4.2;
#X obj 73 402 lop~ 300;
#X obj 163 353 / 2;
#X obj 231 177 * 1;
#X connect 0 0 1 0;
#X connect 1 0 2 0;
#X connect 1 1 9 0;
#X connect 2 0 17 0;
#X connect 2 0 18 0;
#X connect 3 0 15 0;
#X connect 4 0 14 0;
#X connect 5 0 6 0;
#X connect 5 0 6 1;
#X connect 6 0 7 0;
#X connect 7 0 13 0;
#X connect 9 0 12 0;
#X connect 9 1 4 0;
#X connect 10 0 1 0;
#X connect 11 0 1 0;
#X connect 12 0 5 0;
#X connect 13 0 16 0;
#X connect 14 0 5 0;
#X connect 15 0 7 1;
#X connect 16 0 8 0;
#X connect 17 0 16 1;
#X connect 18 0 3 0;
#X restore 439 583 pd lead;
#N canvas 65 89 450 482 lead 0;
#X obj 152 58 inlet;
#X obj 152 80 unpack f f;
#X obj 204 144 mtof;
#X obj 230 227 osc~;
#X obj 122 160 / 127;
#X obj 75 228 vline~;
#X obj 75 250 *~;
#X obj 76 339 *~;
#X obj 68 455 outlet~;
#X obj 94 133 select 0;
#X msg 54 35 70 127;
#X msg 48 68 70 0;
#X msg 39 159 0 500;
#X obj 76 369 cos~;
#X msg 110 200 \$1 5 \, 0.2 300 10;
#X obj 197 287 *~ 4.2;
#X obj 73 402 lop~ 300;
#X obj 163 353 / 2;
#X obj 231 177 * 1;
#X connect 0 0 1 0;
#X connect 1 0 2 0;
#X connect 1 1 9 0;
#X connect 2 0 17 0;
#X connect 2 0 18 0;
#X connect 3 0 15 0;
#X connect 4 0 14 0;
#X connect 5 0 6 0;
#X connect 5 0 6 1;
#X connect 6 0 7 0;
#X connect 7 0 13 0;
#X connect 9 0 12 0;
#X connect 9 1 4 0;
#X connect 10 0 1 0;
#X connect 11 0 1 0;
#X connect 12 0 5 0;
#X connect 13 0 16 0;
#X connect 14 0 5 0;
#X connect 15 0 7 1;
#X connect 16 0 8 0;
#X connect 17 0 16 1;
#X connect 18 0 3 0;
#X restore 392 527 pd lead;
#N canvas 65 85 450 482 lead 0;
#X obj 152 58 inlet;
#X obj 152 80 unpack f f;
#X obj 204 144 mtof;
#X obj 230 227 osc~;
#X obj 122 160 / 127;
#X obj 75 228 vline~;
#X obj 75 250 *~;
#X obj 76 339 *~;
#X obj 68 455 outlet~;
#X obj 94 133 select 0;
#X msg 54 35 70 127;
#X msg 48 68 70 0;
#X msg 39 159 0 500;
#X obj 76 369 cos~;
#X msg 110 200 \$1 5 \, 0.2 300 10;
#X obj 197 287 *~ 4.2;
#X obj 73 402 lop~ 300;
#X obj 163 353 / 2;
#X obj 231 177 * 1;
#X connect 0 0 1 0;
#X connect 1 0 2 0;
#X connect 1 1 9 0;
#X connect 2 0 17 0;
#X connect 2 0 18 0;
#X connect 3 0 15 0;
#X connect 4 0 14 0;
#X connect 5 0 6 0;
#X connect 5 0 6 1;
#X connect 6 0 7 0;
#X connect 7 0 13 0;
#X connect 9 0 12 0;
#X connect 9 1 4 0;
#X connect 10 0 1 0;
#X connect 11 0 1 0;
#X connect 12 0 5 0;
#X connect 13 0 16 0;
#X connect 14 0 5 0;
#X connect 15 0 7 1;
#X connect 16 0 8 0;
#X connect 17 0 16 1;
#X connect 18 0 3 0;
#X restore 414 563 pd lead;
#X obj 391 406 poly 3 1;
#X obj 391 438 pack f f f;
#X obj 390 471 route 1 2 3;
#X obj 158 651 r volume;
#X obj 77 647 *~ 1;
#X obj 123 682 r pan;
#X obj 32 736 *~ 1;
#X obj 72 737 *~ 1;
#N canvas 65 85 450 300 panner 1;
#X obj 144 24 inlet;
#X obj 110 217 outlet;
#X obj 186 193 outlet;
#X obj 188 115 + 1;
#X obj 188 137 / 2;
#X obj 188 80 max 0;
#X obj 111 115 + 1;
#X obj 111 137 / 2;
#X obj 111 80 min 0;
#X obj 111 159 swap 1;
#X obj 111 181 -;
#X connect 0 0 5 0;
#X connect 0 0 8 0;
#X connect 3 0 4 0;
#X connect 4 0 2 0;
#X connect 5 0 3 0;
#X connect 6 0 7 0;
#X connect 7 0 9 0;
#X connect 8 0 6 0;
#X connect 9 0 10 0;
#X connect 9 1 10 1;
#X connect 10 0 1 0;
#X restore 123 704 pd panner;
#X floatatom 139 746 5 0 0 0 - - -, f 5;
#X floatatom 203 734 5 0 0 0 - - -, f 5;
#X obj 237 672 hsl 128 15 -1 1 0 0 empty empty empty -2 -8 0 10 -262144
-1 -1 5900 1;
#X obj 642 202 print;
#N canvas -1 554 450 300 drum 1;
#X obj 110 209 outlet;
#X msg 96 69 -1 35 127;
#X connect 1 0 0 0;
#X restore 146 448 pd drum test;
#X obj 285 188 drum;
#X obj 147 494 bng 15 250 50 0 empty empty empty 17 7 0 10 -262144
-1 -1;
#X obj 200 498 bng 15 250 50 0 empty empty empty 17 7 0 10 -262144
-1 -1;
#X obj 264 490 bng 15 250 50 0 empty empty empty 17 7 0 10 -262144
-1 -1;
#X obj 292 478 bng 15 250 50 0 empty empty empty 17 7 0 10 -262144
-1 -1;
#X obj 316 502 bng 15 250 50 0 empty empty empty 17 7 0 10 -262144
-1 -1;
#X obj 349 498 bng 15 250 50 0 empty empty empty 17 7 0 10 -262144
-1 -1;
#X obj 336 474 bng 15 250 50 0 empty empty empty 17 7 0 10 -262144
-1 -1;
#X obj 370 504 bng 15 250 50 0 empty empty empty 17 7 0 10 -262144
-1 -1;
#X obj 231 496 bng 15 250 50 0 empty empty empty 17 7 0 10 -262144
-1 -1;
#X obj 15 557 bng 15 250 50 0 empty empty empty 17 7 0 10 -262144 -1
-1;
#X obj 257 561 bng 15 250 50 0 empty empty empty 17 7 0 10 -262144
-1 -1;
#N canvas 206 256 539 749 midi-monitor 1;
#X obj 141 10 notein;
#X obj 237 134 tabread pgm;
#X obj 237 278 route -1 0 1 2 3 4 5 6 7 8 9 10 11 12 13 14 15;
#X obj 291 343 poly 5 1;
#X obj 288 407 pack f f f;
#X obj 288 429 print;
#X obj 365 323 bng 15 250 50 0 empty empty empty 17 7 0 10 -262144
-1 -1;
#X obj 134 96 t b f;
#X obj 138 215 pack f f f;
#X obj 135 153 f;
#X connect 0 0 7 0;
#X connect 0 1 8 2;
#X connect 0 2 1 0;
#X connect 1 0 9 1;
#X connect 2 4 3 0;
#X connect 2 4 6 0;
#X connect 3 0 4 0;
#X connect 3 1 4 1;
#X connect 3 2 4 2;
#X connect 4 0 5 0;
#X connect 7 0 9 0;
#X connect 7 1 8 1;
#X connect 8 0 2 0;
#X connect 9 0 8 0;
#X restore 407 323 pd midi-monitor;
#N canvas 114 343 450 482 guitar 1;
#X obj 152 58 inlet;
#X obj 152 80 unpack f f;
#X obj 204 144 mtof;
#X obj 230 227 osc~;
#X obj 122 160 / 127;
#X obj 75 228 vline~;
#X obj 75 250 *~;
#X obj 76 339 *~;
#X obj 68 455 outlet~;
#X obj 94 133 select 0;
#X msg 54 35 70 127;
#X msg 48 68 70 0;
#X msg 39 159 0 500;
#X obj 76 369 cos~;
#X msg 110 200 \$1 5 \, 0.2 300 10;
#X obj 197 287 *~ 4.2;
#X obj 73 402 lop~ 300;
#X obj 163 353 / 2;
#X obj 231 177 * 1;
#X connect 0 0 1 0;
#X connect 1 0 2 0;
#X connect 1 1 9 0;
#X connect 2 0 17 0;
#X connect 2 0 18 0;
#X connect 3 0 15 0;
#X connect 4 0 14 0;
#X connect 5 0 6 0;
#X connect 5 0 6 1;
#X connect 6 0 7 0;
#X connect 7 0 13 0;
#X connect 9 0 12 0;
#X connect 9 1 4 0;
#X connect 10 0 1 0;
#X connect 11 0 1 0;
#X connect 12 0 5 0;
#X connect 13 0 16 0;
#X connect 14 0 5 0;
#X connect 15 0 7 1;
#X connect 16 0 8 0;
#X connect 17 0 16 1;
#X connect 18 0 3 0;
#X restore 289 625 pd guitar;
#X connect 1 0 81 0;
#X connect 1 1 82 0;
#X connect 1 2 83 0;
#X connect 1 3 84 0;
#X connect 1 4 85 0;
#X connect 1 5 86 0;
#X connect 1 6 87 0;
#X connect 1 7 88 0;
#X connect 1 8 89 0;
#X connect 1 9 113 0;
#X connect 1 10 90 0;
#X connect 1 11 91 0;
#X connect 1 12 92 0;
#X connect 1 13 93 0;
#X connect 1 14 94 0;
#X connect 1 15 95 0;
#X connect 2 0 1 0;
#X connect 4 0 68 0;
#X connect 4 1 68 1;
#X connect 4 1 6 1;
#X connect 7 0 111 0;
#X connect 7 0 52 0;
#X connect 8 0 9 0;
#X connect 9 0 11 0;
#X connect 9 1 7 0;
#X connect 11 0 17 0;
#X connect 12 0 10 0;
#X connect 14 0 13 0;
#X connect 16 0 15 0;
#X connect 17 0 12 0;
#X connect 17 1 14 0;
#X connect 17 2 16 0;
#X connect 17 3 19 0;
#X connect 17 4 21 0;
#X connect 17 5 23 0;
#X connect 17 6 25 0;
#X connect 17 7 27 0;
#X connect 17 8 29 0;
#X connect 17 9 31 0;
#X connect 17 10 33 0;
#X connect 17 11 35 0;
#X connect 17 12 37 0;
#X connect 17 13 39 0;
#X connect 17 14 41 0;
#X connect 17 15 43 0;
#X connect 19 0 18 0;
#X connect 21 0 20 0;
#X connect 23 0 22 0;
#X connect 25 0 24 0;
#X connect 27 0 26 0;
#X connect 29 0 28 0;
#X connect 31 0 30 0;
#X connect 33 0 32 0;
#X connect 35 0 34 0;
#X connect 37 0 36 0;
#X connect 39 0 38 0;
#X connect 41 0 40 0;
#X connect 43 0 42 0;
#X connect 44 0 11 1;
#X connect 45 0 11 1;
#X connect 46 0 11 1;
#X connect 47 0 11 1;
#X connect 48 0 11 1;
#X connect 49 0 11 1;
#X connect 50 0 11 1;
#X connect 51 0 11 1;
#X connect 52 0 44 0;
#X connect 52 1 47 0;
#X connect 52 2 45 0;
#X connect 52 3 46 0;
#X connect 52 4 48 0;
#X connect 52 5 49 0;
#X connect 52 6 50 0;
#X connect 52 7 51 0;
#X connect 52 8 53 0;
#X connect 52 9 54 0;
#X connect 52 10 55 0;
#X connect 52 11 56 0;
#X connect 52 12 57 0;
#X connect 52 13 58 0;
#X connect 52 14 59 0;
#X connect 52 15 60 0;
#X connect 52 16 61 0;
#X connect 53 0 11 1;
#X connect 54 0 11 1;
#X connect 55 0 11 1;
#X connect 56 0 11 1;
#X connect 57 0 11 1;
#X connect 58 0 11 1;
#X connect 59 0 11 1;
#X connect 60 0 11 1;
#X connect 61 0 62 0;
#X connect 62 0 11 1;
#X connect 63 0 65 0;
#X connect 63 1 75 2;
#X connect 63 2 64 0;
#X connect 64 0 76 1;
#X connect 65 0 76 0;
#X connect 65 1 75 1;
#X connect 68 0 69 0;
#X connect 68 1 69 1;
#X connect 69 0 71 0;
#X connect 71 0 72 0;
#X connect 71 1 73 0;
#X connect 72 0 6 0;
#X connect 73 1 77 0;
#X connect 74 0 67 0;
#X connect 74 0 123 0;
#X connect 74 1 99 0;
#X connect 74 2 79 0;
#X connect 74 3 122 0;
#X connect 74 4 126 0;
#X connect 74 4 99 0;
#X connect 74 5 78 0;
#X connect 74 6 114 0;
#X connect 74 7 80 0;
#X connect 74 8 80 0;
#X connect 74 9 115 0;
#X connect 74 10 80 0;
#X connect 74 10 124 0;
#X connect 74 11 99 0;
#X connect 74 12 116 0;
#X connect 74 13 117 0;
#X connect 74 14 118 0;
#X connect 74 15 119 0;
#X connect 74 16 120 0;
#X connect 74 17 121 0;
#X connect 75 0 74 0;
#X connect 76 0 75 0;
#X connect 77 0 6 0;
#X connect 81 0 3 0;
#X connect 82 0 3 0;
#X connect 83 0 3 0;
#X connect 84 0 3 0;
#X connect 85 0 3 0;
#X connect 86 0 3 0;
#X connect 87 0 3 0;
#X connect 88 0 3 0;
#X connect 89 0 3 0;
#X connect 90 0 3 0;
#X connect 91 0 3 0;
#X connect 92 0 3 0;
#X connect 93 0 3 0;
#X connect 94 0 3 0;
#X connect 95 0 3 0;
#X connect 96 0 103 0;
#X connect 97 0 103 0;
#X connect 98 0 103 0;
#X connect 99 0 100 0;
#X connect 99 1 100 1;
#X connect 99 2 100 2;
#X connect 100 0 101 0;
#X connect 101 0 97 0;
#X connect 101 1 98 0;
#X connect 101 2 96 0;
#X connect 102 0 103 1;
#X connect 103 0 105 0;
#X connect 103 0 106 0;
#X connect 104 0 107 0;
#X connect 105 0 66 0;
#X connect 106 0 66 1;
#X connect 107 0 105 1;
#X connect 107 0 108 0;
#X connect 107 1 106 1;
#X connect 107 1 109 0;
#X connect 110 0 107 0;
#X connect 112 0 74 0;
#X connect 113 0 3 0;
