#N canvas 248 488 640 420 10;
#X obj 152 58 inlet;
#X obj 152 80 unpack f f;
#X obj 256 202 mtof;
#X obj 256 224 osc~;
#X obj 122 160 / 127;
#X obj 75 228 vline~;
#X obj 75 250 *~;
#X obj 75 272 *~;
#X obj 75 294 outlet~;
#X obj 94 133 select 0;
#X msg 39 159 0 100;
#X msg 54 35 70 127;
#X msg 48 68 70 0;
#X msg 110 200 \$1 5 \, 0.1 10 5;
#X connect 0 0 1 0;
#X connect 1 0 2 0;
#X connect 1 1 9 0;
#X connect 2 0 3 0;
#X connect 3 0 7 1;
#X connect 4 0 13 0;
#X connect 5 0 6 0;
#X connect 5 0 6 1;
#X connect 6 0 7 0;
#X connect 7 0 8 0;
#X connect 9 0 10 0;
#X connect 9 1 4 0;
#X connect 10 0 5 0;
#X connect 11 0 1 0;
#X connect 12 0 1 0;
#X connect 13 0 5 0;
