#N canvas 745 253 1072 455 10;
#X obj 40 36 osc~ 440;
#X obj 32 216 dac~;
#X obj 252 117 r test-bang;
#X obj 252 160 print result-bang;
#X obj 251 27 bng 15 250 50 0 empty empty empty 17 7 0 10 -262144 -1
-1;
#X obj 251 81 s test-bang;
#X obj 672 27 bng 15 250 50 0 empty empty empty 17 7 0 10 -262144 -1
-1;
#X floatatom 390 9 5 0 0 0 - - -, f 5;
#X obj 390 47 f;
#X obj 390 82 s test-float;
#X obj 391 118 r test-float;
#X obj 391 161 print result-float;
#X obj 391 26 / 100;
#X obj 530 82 s test-symbol;
#X obj 531 118 r test-symbol;
#X obj 531 161 print result-symbol;
#X symbolatom 530 45 10 0 0 0 - - -, f 10;
#X obj 672 81 s test-list;
#X obj 673 118 r test-list;
#X obj 673 160 print result-list;
#X obj 819 79 s test-message;
#X obj 820 116 r test-message;
#X obj 820 159 print result-message;
#X msg 819 32 1 4.5 toto;
#X obj 41 132 /~ 5;
#X obj 168 224 loadbang;
#X obj 168 246 metro 500;
#X obj 168 315 s event-test;
#X obj 168 272 random 100;
#X obj 24 273 adc~;
#X obj 23 327 snapshot~;
#X obj 146 225 tgl 15 0 empty empty empty 17 7 0 10 -262144 -1 -1 1
1;
#X obj 24 404 print test-in-left;
#X obj 67 294 snapshot~;
#X obj 67 381 print test-in-right;
#X connect 0 0 24 0;
#X connect 2 0 3 0;
#X connect 4 0 5 0;
#X connect 6 0 17 0;
#X connect 7 0 12 0;
#X connect 8 0 9 0;
#X connect 10 0 11 0;
#X connect 12 0 8 0;
#X connect 14 0 15 0;
#X connect 16 0 13 0;
#X connect 18 0 19 0;
#X connect 21 0 22 0;
#X connect 23 0 20 0;
#X connect 24 0 1 0;
#X connect 24 0 1 1;
#X connect 25 0 26 0;
#X connect 26 0 28 0;
#X connect 26 0 30 0;
#X connect 26 0 33 0;
#X connect 28 0 27 0;
#X connect 29 0 30 0;
#X connect 29 1 33 0;
#X connect 30 0 32 0;
#X connect 31 0 26 0;
#X connect 33 0 34 0;
