#N canvas 270 331 1335 459 10;
#X obj 119 106 loadbang;
#X obj 119 128 metro 500;
#X msg 119 150 1 10 \, 0 100 10;
#X obj 119 172 vline~;
#X obj 121 237 *~;
#X obj 292 364 dac~;
#X obj 250 135 osc~ 440;
#X obj 78 105 tgl 15 0 empty empty empty 17 7 0 10 -262144 -1 -1 0
1;
#X obj 497 13 notein;
#X obj 387 210 vline~;
#X obj 387 232 *~;
#X obj 533 216 osc~ 440;
#X obj 530 179 mtof;
#X msg 387 189 1 2 \, 0 30 2;
#X obj 296 272 *~ 0.5;
#X obj 480 89 pack f f f;
#X obj 495 61 swap;
#X obj 480 111 route 10;
#X obj 546 138 unpack f f f;
#X obj 631 168 select 0;
#X connect 0 0 1 0;
#X connect 1 0 2 0;
#X connect 2 0 3 0;
#X connect 3 0 4 0;
#X connect 4 0 14 0;
#X connect 6 0 4 1;
#X connect 7 0 1 0;
#X connect 8 0 16 0;
#X connect 8 1 15 2;
#X connect 8 2 16 1;
#X connect 9 0 10 0;
#X connect 10 0 14 0;
#X connect 11 0 10 1;
#X connect 12 0 11 0;
#X connect 13 0 9 0;
#X connect 14 0 5 0;
#X connect 14 0 5 1;
#X connect 15 0 17 0;
#X connect 16 0 15 0;
#X connect 16 1 15 1;
#X connect 17 1 18 0;
#X connect 18 1 12 0;
#X connect 18 2 19 0;
#X connect 19 1 13 0;
