#N canvas 869 278 479 551 10;
#X obj 117 -5 notein;
#X obj 103 28 pack f f f;
#X obj 103 74 route 1 2 3 4 5 6 7 8 9 10 11 12 13 14 15 16;
#X obj 103 462 outlet;
#X obj 103 103 mute;
#X msg 12 -7 1 64 127;
#X obj 122 441 outlet;
#X obj 122 103 mute;
#X obj 141 419 outlet;
#X obj 141 103 mute;
#X obj 160 398 outlet;
#X obj 160 103 mute;
#X obj 179 377 outlet;
#X obj 179 103 mute;
#X obj 198 356 outlet;
#X obj 198 103 mute;
#X obj 217 334 outlet;
#X obj 217 103 mute;
#X obj 236 313 outlet;
#X obj 236 103 mute;
#X obj 255 291 outlet;
#X obj 255 103 mute;
#X obj 274 270 outlet;
#X obj 274 103 mute;
#X obj 293 248 outlet;
#X obj 293 103 mute;
#X obj 312 227 outlet;
#X obj 312 103 mute;
#X obj 331 206 outlet;
#X obj 331 103 mute;
#X obj 350 185 outlet;
#X obj 350 103 mute;
#X obj 369 163 outlet;
#X obj 369 103 mute;
#X obj 388 142 outlet;
#X obj 388 103 mute;
#X obj 18 91 inlet;
#X msg 18 125 0 0;
#X obj 103 51 mute;
#X connect 0 0 1 1;
#X connect 0 1 1 2;
#X connect 0 2 1 0;
#X connect 1 0 38 0;
#X connect 2 0 4 0;
#X connect 2 1 7 0;
#X connect 2 2 9 0;
#X connect 2 3 11 0;
#X connect 2 4 13 0;
#X connect 2 5 15 0;
#X connect 2 6 17 0;
#X connect 2 7 19 0;
#X connect 2 8 21 0;
#X connect 2 9 23 0;
#X connect 2 10 25 0;
#X connect 2 11 27 0;
#X connect 2 12 29 0;
#X connect 2 13 31 0;
#X connect 2 14 33 0;
#X connect 2 15 35 0;
#X connect 4 0 3 0;
#X connect 5 0 2 0;
#X connect 7 0 6 0;
#X connect 9 0 8 0;
#X connect 11 0 10 0;
#X connect 13 0 12 0;
#X connect 15 0 14 0;
#X connect 17 0 16 0;
#X connect 19 0 18 0;
#X connect 21 0 20 0;
#X connect 23 0 22 0;
#X connect 25 0 24 0;
#X connect 27 0 26 0;
#X connect 29 0 28 0;
#X connect 31 0 30 0;
#X connect 33 0 32 0;
#X connect 35 0 34 0;
#X connect 36 0 37 0;
#X connect 37 0 3 0;
#X connect 37 0 6 0;
#X connect 37 0 8 0;
#X connect 37 0 10 0;
#X connect 37 0 12 0;
#X connect 37 0 14 0;
#X connect 37 0 16 0;
#X connect 37 0 18 0;
#X connect 37 0 20 0;
#X connect 37 0 22 0;
#X connect 37 0 24 0;
#X connect 37 0 26 0;
#X connect 37 0 28 0;
#X connect 37 0 30 0;
#X connect 37 0 32 0;
#X connect 37 0 34 0;
#X connect 38 0 2 0;
#X coords 0 -1 1 1 310 24 2 100 100;
