#N canvas 65 97 450 423 10;
#X obj 109 73 inlet;
#X obj 211 213 noise~;
#X obj 109 95 select 0;
#X obj 161 145 / 127;
#X obj 116 225 vline~;
#X obj 116 247 *~;
#X obj 116 269 *~;
#X obj 111 379 outlet~;
#X obj 228 168 print;
#X msg 95 154 0 0;
#X obj 116 291 bp~ \$1 1;
#X msg 162 188 \$1 0 \, 0 200 0;
#X connect 0 0 2 0;
#X connect 1 0 6 1;
#X connect 2 0 9 0;
#X connect 2 1 3 0;
#X connect 3 0 11 0;
#X connect 4 0 5 0;
#X connect 4 0 5 1;
#X connect 5 0 6 0;
#X connect 6 0 10 0;
#X connect 9 0 4 0;
#X connect 10 0 7 0;
#X connect 11 0 4 0;
