#N canvas 70 287 1353 693 10;
#X obj 152 14 adc~;
#X obj 151 383 bp~ 2000 10;
#X msg 1089 159 learn 0;
#X msg 1109 218 forget;
#X obj 926 276 bonk~;
#X floatatom 1013 314 5 0 0 0 - - -, f 5;
#X obj 926 313 bng 15 250 50 0 empty empty empty 17 7 0 10 -262144
-1 -1;
#X obj 1056 8 loadbang;
#X msg 1056 30 minvel 80;
#X msg 1067 94 learn 3;
#X obj 1067 74 r start_learning;
#X obj 1089 138 r stop_learning;
#X obj 1109 199 r forget;
#X text 951 313 attack;
#X text 1063 315 attack-id;
#X floatatom 167 460 5 0 0 0 - - -, f 5;
#X floatatom 357 462 5 0 0 0 - - -, f 5;
#X obj 344 603 s level;
#X obj 289 515 vu 15 120 empty empty -1 -8 0 10 -66577 -1 1 0;
#X obj 288 484 - 88;
#X obj 151 434 sigmund~ -hop 8192 pitch env;
#X floatatom 167 507 5 0 0 0 - - -, f 5;
#X obj 151 485 max 0;
#X obj 151 601 s pitch;
#X obj 958 378 s attackId;
#X obj 958 350 unpack f f f;
#X obj 1067 279 print;
#X connect 0 0 1 0;
#X connect 0 0 4 0;
#X connect 1 0 20 0;
#X connect 2 0 4 0;
#X connect 2 0 26 0;
#X connect 3 0 4 0;
#X connect 3 0 26 0;
#X connect 4 0 6 0;
#X connect 4 1 5 0;
#X connect 4 1 25 0;
#X connect 7 0 8 0;
#X connect 8 0 4 0;
#X connect 9 0 4 0;
#X connect 9 0 26 0;
#X connect 10 0 9 0;
#X connect 11 0 2 0;
#X connect 12 0 3 0;
#X connect 19 0 18 0;
#X connect 20 0 15 0;
#X connect 20 0 22 0;
#X connect 20 1 16 0;
#X connect 20 1 19 0;
#X connect 20 1 17 0;
#X connect 22 0 21 0;
#X connect 22 0 23 0;
#X connect 25 0 24 0;
