#N canvas 441 274 1160 484 10;
#X obj 405 409 dac~;
#X obj 755 278 abs/sampler~ ../samples/sell_buy_item.wav 100000;
#X obj 730 123 s sample;
#X obj 731 167 r sample;
#X obj 730 80 hradio 15 1 0 3 empty empty empty 0 -8 0 10 -262144 -1
-1 0;
#X msg 723 229 1;
#X msg 755 228 1.5;
#X msg 789 227 0.5;
#N canvas 65 85 736 507 explosion 0;
#X obj 187 366 *~;
#X obj 205 300 vline~;
#X obj 186 225 *~ 4096;
#X obj 186 247 tabread4~ noise;
#X obj 206 336 *~;
#X obj 377 360 *~;
#X obj 395 294 vline~;
#X obj 376 219 *~ 4096;
#X obj 376 241 tabread4~ noise;
#X obj 396 330 *~;
#X obj 376 197 phasor~ 1;
#X obj 549 365 *~;
#X obj 567 299 vline~;
#X obj 548 224 *~ 4096;
#X obj 548 246 tabread4~ noise;
#X obj 568 335 *~;
#X obj 548 202 phasor~ 2;
#X obj 390 115 f;
#X msg 205 278 \$1 2 \, 0 2000 10;
#X obj 306 154 * 3;
#X msg 395 272 \$1 2 \, 0 1500 10;
#X obj 444 141 * 2;
#X obj 306 176 min 1;
#X obj 444 163 min 1;
#X obj 187 203 phasor~ 0.2;
#X msg 568 277 \$1 2 \, 0 500 10;
#X obj 521 141 * 1;
#X obj 388 443 outlet~;
#X obj 23 15 loadbang;
#X obj 23 130 tabwrite~ noise;
#X obj 23 44 t b b;
#X obj 55 75 array define noise 4096;
#X obj 38 98 noise~;
#X obj 390 53 inlet;
#X connect 0 0 27 0;
#X connect 1 0 4 0;
#X connect 1 0 4 1;
#X connect 2 0 3 0;
#X connect 3 0 0 0;
#X connect 4 0 0 1;
#X connect 5 0 27 0;
#X connect 6 0 9 0;
#X connect 6 0 9 1;
#X connect 7 0 8 0;
#X connect 8 0 5 0;
#X connect 9 0 5 1;
#X connect 10 0 7 0;
#X connect 11 0 27 0;
#X connect 12 0 15 0;
#X connect 12 0 15 1;
#X connect 13 0 14 0;
#X connect 14 0 11 0;
#X connect 15 0 11 1;
#X connect 16 0 13 0;
#X connect 17 0 19 0;
#X connect 17 0 21 0;
#X connect 17 0 26 0;
#X connect 18 0 1 0;
#X connect 19 0 22 0;
#X connect 20 0 6 0;
#X connect 21 0 23 0;
#X connect 22 0 18 0;
#X connect 23 0 20 0;
#X connect 24 0 2 0;
#X connect 25 0 12 0;
#X connect 26 0 25 0;
#X connect 28 0 30 0;
#X connect 30 0 29 0;
#X connect 30 1 31 0;
#X connect 32 0 29 0;
#X connect 33 0 17 0;
#X restore 125 286 pd explosion;
#X obj 124 365 dac~;
#X obj 100 81 hradio 15 1 0 3 empty empty empty 0 -8 0 10 -262144 -1
-1 2;
#X obj 100 124 s explosion;
#X obj 101 168 r explosion;
#X msg 85 230 0.33;
#X msg 125 231 0.66;
#X msg 168 230 1;
#X obj 757 354 dac~;
#X obj 756 311 *~ 0.98;
#X obj 439 75 hradio 15 1 0 3 empty empty empty 0 -8 0 10 -262144 -1
-1 1;
#N canvas 65 89 450 300 bip 0;
#X obj 143 204 *~;
#X obj 218 133 vline~;
#X obj 219 169 *~;
#X obj 91 133 osc~ 330;
#X msg 144 98 0;
#X msg 218 110 1 5 \, 0 100 10;
#X obj 91 14 inlet;
#X obj 164 61 bang;
#X obj 143 226 outlet~;
#X connect 0 0 8 0;
#X connect 1 0 2 0;
#X connect 1 0 2 1;
#X connect 2 0 0 1;
#X connect 3 0 0 0;
#X connect 4 0 3 1;
#X connect 5 0 1 0;
#X connect 6 0 7 0;
#X connect 6 0 3 0;
#X connect 7 0 5 0;
#X connect 7 0 4 0;
#X restore 352 297 pd bip;
#X obj 439 118 s gui;
#X obj 440 162 r gui;
#X msg 352 262 330;
#X obj 383 227 select 0 1;
#X obj 101 190 select 0 1 2;
#X obj 731 189 select 0 1 2;
#X obj 490 231 select 2;
#X msg 494 267 1;
#X msg 532 266 0;
#N canvas 652 350 541 467 bips 0;
#X obj 50 343 *~;
#X obj 50 394 *~;
#X obj 156 99 select 1 0;
#X obj 51 248 lop~ 300;
#X msg 194 136 0 20;
#X obj 155 35 inlet;
#X obj 50 416 outlet~;
#X obj 70 300 osc~ 400;
#X obj 51 226 phasor~ -14;
#X msg 156 136 1 5;
#X obj 156 330 line~;
#X msg 125 193 0;
#X connect 0 0 1 0;
#X connect 1 0 6 0;
#X connect 2 0 9 0;
#X connect 2 1 4 0;
#X connect 3 0 0 0;
#X connect 4 0 10 0;
#X connect 5 0 2 0;
#X connect 7 0 0 1;
#X connect 8 0 3 0;
#X connect 9 0 10 0;
#X connect 9 0 11 0;
#X connect 10 0 1 1;
#X connect 11 0 8 1;
#X restore 500 298 pd bips;
#X msg 396 260 990;
#X obj 124 323 *~ 0.3;
#X obj 405 367 *~ 0.4;
#X connect 1 0 17 0;
#X connect 3 0 25 0;
#X connect 4 0 2 0;
#X connect 5 0 1 0;
#X connect 6 0 1 0;
#X connect 7 0 1 0;
#X connect 8 0 31 0;
#X connect 10 0 11 0;
#X connect 12 0 24 0;
#X connect 13 0 8 0;
#X connect 14 0 8 0;
#X connect 15 0 8 0;
#X connect 17 0 16 0;
#X connect 17 0 16 1;
#X connect 18 0 20 0;
#X connect 19 0 32 0;
#X connect 21 0 23 0;
#X connect 21 0 26 0;
#X connect 22 0 19 0;
#X connect 23 0 22 0;
#X connect 23 1 30 0;
#X connect 24 0 13 0;
#X connect 24 1 14 0;
#X connect 24 2 15 0;
#X connect 25 0 5 0;
#X connect 25 1 6 0;
#X connect 25 2 7 0;
#X connect 26 0 27 0;
#X connect 26 1 28 0;
#X connect 27 0 29 0;
#X connect 28 0 29 0;
#X connect 29 0 32 0;
#X connect 30 0 19 0;
#X connect 31 0 9 0;
#X connect 31 0 9 1;
#X connect 32 0 0 0;
#X connect 32 0 0 1;
