#N canvas 356 272 1099 748 10;
#X obj 856 59 r shot;
#X obj 992 61 r gui;
#X obj 636 552 *~;
#X obj 654 486 vline~;
#X obj 626 662 dac~;
#X obj 23 15 loadbang;
#X obj 23 130 tabwrite~ noise;
#X obj 23 44 t b b;
#X obj 55 75 array define noise 4096;
#X obj 38 98 noise~;
#X obj 635 411 *~ 4096;
#X obj 635 433 tabread4~ noise;
#X msg 769 476 1;
#X msg 763 517 0;
#X obj 655 522 *~;
#X obj 826 546 *~;
#X obj 844 480 vline~;
#X obj 825 405 *~ 4096;
#X obj 825 427 tabread4~ noise;
#X msg 959 470 1;
#X msg 953 511 0;
#X obj 845 516 *~;
#X obj 825 383 phasor~ 1;
#X obj 998 551 *~;
#X obj 1016 485 vline~;
#X obj 997 410 *~ 4096;
#X obj 997 432 tabread4~ noise;
#X msg 1131 475 1;
#X msg 1125 516 0;
#X obj 1017 521 *~;
#X obj 997 388 phasor~ 2;
#X obj 637 608 *~ 0.5;
#X msg 918 265 1;
#X obj 839 301 f;
#X msg 654 464 \$1 2 \, 0 2000 10;
#X obj 755 340 * 3;
#X msg 844 458 \$1 2 \, 0 1500 10;
#X obj 893 327 * 2;
#X obj 755 362 min 1;
#X obj 893 349 min 1;
#X msg 921 206 0.33;
#X msg 916 236 0.66;
#X obj 636 389 phasor~ 0.2;
#X msg 1017 463 \$1 2 \, 0 500 10;
#X obj 970 327 * 1;
#X obj 75 562 *~;
#X obj 93 496 vline~;
#X obj 65 672 dac~;
#X obj 74 443 tabread4~ noise;
#X msg 202 527 0;
#X obj 94 532 *~;
#X msg 208 486 1;
#X obj 75 399 phasor~ 0.1;
#X obj 87 294 vline~;
#X obj 95 338 *~;
#X obj 307 118 r boom;
#X obj 298 223 + 0.5;
#X msg 181 251 \$1 \, 0.5 500;
#X msg 442 81 0.25;
#X msg 444 117 0.5;
#X msg 448 155 0.75;
#X msg 487 194 1;
#X obj 454 241 s boom;
#X obj 343 188 + 0.5;
#X obj 343 166 / 2;
#X msg 93 473 \$1 2 \, 0 1000 10;
#X obj 74 421 *~ 4096;
#X obj 314 174 * 2;
#X obj 76 618 *~ 3;
#X obj 429 385 *~ 2;
#X obj 429 407 -~ 1;
#X obj 370 543 *~;
#X obj 370 565 dac~;
#X obj 445 472 vline~;
#X obj 446 508 *~;
#X msg 445 449 1 2 \, 0 1000 10;
#X obj 318 491 *~;
#X obj 283 402 osc~ 33;
#X obj 429 363 phasor~ 630;
#X obj 365 404 osc~ 600;
#X obj 296 332 *~ 330;
#X obj 296 276 osc~ 34;
#X msg 405 450 1;
#X obj 315 367 +~ 300;
#N canvas 716 97 585 753 mod 0;
#X obj 66 438 osc~;
#X obj 50 591 dac~;
#X obj 65 366 osc~;
#X obj 66 463 cos~;
#X obj 65 503 *~;
#X obj 65 525 *~ 0.6;
#X obj 145 463 vline~;
#X msg 289 381 1;
#X msg 288 419 0;
#X obj 103 204 vline~;
#X obj 196 6 bng 15 250 50 0 empty empty empty 17 7 0 10 -262144 -1
-1;
#X obj 257 17 bng 15 250 50 0 empty empty empty 17 7 0 10 -262144 -1
-1;
#X msg 160 359 1 30;
#X msg 213 362 0 30;
#X obj 65 410 +~ 600;
#X obj 65 387 *~ 400;
#X obj 67 284 +~ 600;
#X msg 84 165 1 300;
#X obj 66 238 /~;
#X obj 55 203 sig~ 1;
#X obj 362 89 vsl 15 128 0 127 0 0 empty empty empty 0 -9 0 10 -262144
-1 -1 6100 1;
#X obj 362 225 mtof;
#X obj 67 262 *~ 600;
#X msg 144 170 300 3000;
#X connect 0 0 3 0;
#X connect 2 0 15 0;
#X connect 3 0 4 0;
#X connect 4 0 5 0;
#X connect 5 0 1 0;
#X connect 5 0 1 1;
#X connect 6 0 4 1;
#X connect 7 0 6 0;
#X connect 8 0 6 0;
#X connect 9 0 18 1;
#X connect 10 0 23 0;
#X connect 10 0 12 0;
#X connect 11 0 13 0;
#X connect 11 0 17 0;
#X connect 12 0 6 0;
#X connect 13 0 6 0;
#X connect 14 0 0 0;
#X connect 15 0 14 0;
#X connect 16 0 2 0;
#X connect 17 0 9 0;
#X connect 18 0 22 0;
#X connect 19 0 18 0;
#X connect 20 0 21 0;
#X connect 21 0 16 1;
#X connect 21 0 14 1;
#X connect 22 0 16 0;
#X connect 23 0 9 0;
#X restore 120 14 pd mod;
#N canvas 723 207 541 467 bip 0;
#X obj 229 288 osc~ 1000;
#X obj 210 331 *~;
#X obj 210 382 *~;
#X obj 210 404 dac~;
#X obj 306 366 vline~;
#X obj 210 164 phasor~ -14;
#X obj 96 173 vsl 15 128 60 110 0 0 empty empty empty 0 -9 0 10 -262144
-1 -1 6700 1;
#X obj 96 309 mtof;
#X obj 229 219 r tone;
#X obj 210 80 r speed;
#X obj 210 129 -;
#X obj 96 331 s tone;
#X obj 210 102 swap 0;
#X obj 303 90 select 1 0;
#X obj 303 18 tgl 15 0 empty empty empty 17 7 0 10 -262144 -1 -1 0
1;
#X obj 210 187 lop~ 300;
#X obj 34 174 vsl 15 128 0 14 0 0 empty empty empty 0 -9 0 10 -262144
-1 -1 6900 1;
#X obj 34 310 mtof;
#X obj 34 332 s speed;
#X msg 303 127 1 20;
#X msg 341 127 0 20;
#X obj 89 9 tgl 15 0 empty empty empty 17 7 0 10 -262144 -1 -1 1 1
;
#X obj 89 29 metro 1000;
#X obj 32 53 random 20;
#X obj 32 75 s speed;
#X obj 108 101 s tone;
#X obj 108 78 + 300;
#X obj 108 56 random 3000;
#X floatatom 136 310 5 0 0 0 - - -, f 5;
#X connect 0 0 1 1;
#X connect 1 0 2 0;
#X connect 2 0 3 0;
#X connect 2 0 3 1;
#X connect 4 0 2 1;
#X connect 5 0 15 0;
#X connect 6 0 7 0;
#X connect 6 0 28 0;
#X connect 7 0 11 0;
#X connect 8 0 0 0;
#X connect 9 0 12 0;
#X connect 10 0 5 0;
#X connect 12 0 10 0;
#X connect 12 1 10 1;
#X connect 13 0 19 0;
#X connect 13 1 20 0;
#X connect 14 0 13 0;
#X connect 15 0 1 0;
#X connect 16 0 17 0;
#X connect 17 0 18 0;
#X connect 19 0 4 0;
#X connect 19 0 5 1;
#X connect 20 0 4 0;
#X connect 21 0 22 0;
#X connect 22 0 23 0;
#X connect 22 0 27 0;
#X connect 23 0 24 0;
#X connect 26 0 25 0;
#X connect 27 0 26 0;
#X restore 193 15 pd bip;
#N canvas 500 223 699 571 shot 0;
#X obj 203 23 noise~;
#X floatatom 78 163 5 0 0 0 - - -, f 5;
#X obj 194 188 *~ 0.2;
#X obj 194 210 dac~;
#X msg 255 138 1 \, 0 80;
#X obj 255 160 vline~;
#X obj 160 135 *~;
#X obj 199 83 env~ 1024;
#X obj 199 105 moses 99;
#X connect 0 0 6 0;
#X connect 0 0 7 0;
#X connect 2 0 3 0;
#X connect 2 0 3 1;
#X connect 4 0 5 0;
#X connect 5 0 6 1;
#X connect 6 0 2 0;
#X connect 7 0 8 0;
#X connect 8 1 4 0;
#X restore 275 19 pd shot;
#X connect 2 0 31 0;
#X connect 3 0 14 0;
#X connect 3 0 14 1;
#X connect 5 0 7 0;
#X connect 7 0 6 0;
#X connect 7 1 8 0;
#X connect 9 0 6 0;
#X connect 10 0 11 0;
#X connect 11 0 2 0;
#X connect 12 0 3 0;
#X connect 13 0 3 0;
#X connect 14 0 2 1;
#X connect 15 0 31 0;
#X connect 16 0 21 0;
#X connect 16 0 21 1;
#X connect 17 0 18 0;
#X connect 18 0 15 0;
#X connect 19 0 16 0;
#X connect 20 0 16 0;
#X connect 21 0 15 1;
#X connect 22 0 17 0;
#X connect 23 0 31 0;
#X connect 24 0 29 0;
#X connect 24 0 29 1;
#X connect 25 0 26 0;
#X connect 26 0 23 0;
#X connect 27 0 24 0;
#X connect 28 0 24 0;
#X connect 29 0 23 1;
#X connect 30 0 25 0;
#X connect 31 0 4 0;
#X connect 31 0 4 1;
#X connect 32 0 33 0;
#X connect 33 0 35 0;
#X connect 33 0 37 0;
#X connect 33 0 44 0;
#X connect 34 0 3 0;
#X connect 35 0 38 0;
#X connect 36 0 16 0;
#X connect 37 0 39 0;
#X connect 38 0 34 0;
#X connect 39 0 36 0;
#X connect 40 0 33 0;
#X connect 41 0 33 0;
#X connect 42 0 10 0;
#X connect 43 0 24 0;
#X connect 44 0 43 0;
#X connect 45 0 68 0;
#X connect 46 0 50 0;
#X connect 46 0 50 1;
#X connect 48 0 45 0;
#X connect 49 0 46 0;
#X connect 50 0 45 1;
#X connect 51 0 46 0;
#X connect 52 0 66 0;
#X connect 53 0 54 0;
#X connect 53 0 54 1;
#X connect 54 0 52 0;
#X connect 55 0 64 0;
#X connect 55 0 67 0;
#X connect 56 0 57 0;
#X connect 57 0 53 0;
#X connect 58 0 62 0;
#X connect 59 0 62 0;
#X connect 60 0 62 0;
#X connect 61 0 62 0;
#X connect 63 0 65 0;
#X connect 64 0 63 0;
#X connect 65 0 46 0;
#X connect 66 0 48 0;
#X connect 67 0 56 0;
#X connect 68 0 47 0;
#X connect 68 0 47 1;
#X connect 69 0 70 0;
#X connect 71 0 72 0;
#X connect 71 0 72 1;
#X connect 73 0 74 0;
#X connect 73 0 74 1;
#X connect 74 0 71 1;
#X connect 75 0 73 0;
#X connect 77 0 76 0;
#X connect 77 0 71 0;
#X connect 78 0 69 0;
#X connect 79 0 76 1;
#X connect 80 0 83 0;
#X connect 81 0 80 0;
#X connect 82 0 73 0;
#X connect 83 0 77 0;
