#N canvas 734 454 450 436 10;
#X obj 146 47 inlet;
#X obj 250 208 noise~;
#X obj 148 90 select 0;
#X obj 200 140 / 127;
#X obj 155 220 vline~;
#X obj 155 242 *~;
#X obj 161 312 *~;
#X obj 150 374 outlet~;
#X obj 267 163 print;
#X msg 134 149 0 0;
#X obj 247 255 *~ 0.7;
#X msg 234 42 127;
#X obj 332 168 *~ 1;
#X obj 331 146 osc~ 40;
#X obj 252 231 bp~ 1000 1;
#X obj 332 208 +~ 0.25;
#X msg 201 183 \$1 0 \, 0 50 0;
#X obj 331 277 cos~;
#X obj 332 255 *~ 1;
#X obj 331 321 clip~ -1 1;
#X obj 331 299 *~ 1.3;
#X connect 0 0 2 0;
#X connect 1 0 14 0;
#X connect 2 0 9 0;
#X connect 2 1 3 0;
#X connect 3 0 16 0;
#X connect 4 0 5 0;
#X connect 4 0 5 1;
#X connect 5 0 6 0;
#X connect 6 0 7 0;
#X connect 9 0 4 0;
#X connect 10 0 6 1;
#X connect 11 0 2 0;
#X connect 12 0 15 0;
#X connect 13 0 12 0;
#X connect 14 0 10 0;
#X connect 15 0 18 0;
#X connect 16 0 4 0;
#X connect 17 0 20 0;
#X connect 18 0 17 0;
#X connect 19 0 6 1;
#X connect 20 0 19 0;
