#N canvas 527 239 1062 739 10;
#X obj 45 38 inlet;
#X obj 130 634 outlet~;
#X floatatom 851 392 5 0 0 0 - - -, f 5;
#X obj 74 367 bass-drum;
#X text 56 4 http://computermusicresource.com/GM.Percussion.KeyMap.html
;
#X obj 161 371 snare-drum;
#N canvas 65 101 450 398 hh 1;
#X obj 179 28 inlet;
#X obj 281 168 noise~;
#X obj 179 50 select 0;
#X obj 231 100 / 127;
#X obj 186 180 vline~;
#X obj 186 202 *~;
#X obj 186 224 *~;
#X obj 181 334 outlet~;
#X obj 298 123 print;
#X msg 276 35 127;
#X obj 181 285 bp~ 5000 3;
#X msg 165 110 0 20;
#X msg 232 143 \$1 5 \, 0 20 5;
#X obj 258 224 * 1000;
#X obj 257 246 + 4000;
#X connect 0 0 2 0;
#X connect 1 0 6 1;
#X connect 2 0 11 0;
#X connect 2 1 3 0;
#X connect 3 0 12 0;
#X connect 4 0 5 0;
#X connect 4 0 5 1;
#X connect 5 0 6 0;
#X connect 6 0 10 0;
#X connect 9 0 2 0;
#X connect 10 0 7 0;
#X connect 11 0 4 0;
#X connect 12 0 4 0;
#X connect 12 0 13 0;
#X connect 13 0 14 0;
#X connect 14 0 10 1;
#X restore 592 380 pd hh;
#N canvas 97 392 450 300 crash 0;
#X obj 189 25 inlet;
#X obj 291 165 noise~;
#X obj 189 47 select 0;
#X obj 241 97 / 127;
#X obj 196 177 vline~;
#X obj 196 221 *~;
#X obj 191 331 outlet~;
#X obj 308 120 print;
#X obj 196 199 pow~ 10;
#X msg 242 140 \$1 0 \, 0 2200 0;
#X msg 175 106 0 2000;
#X msg 277 18 127;
#X obj 194 243 hip~ 800 30;
#X connect 0 0 2 0;
#X connect 1 0 5 1;
#X connect 2 0 10 0;
#X connect 2 1 3 0;
#X connect 3 0 9 0;
#X connect 4 0 8 0;
#X connect 5 0 12 0;
#X connect 8 0 5 0;
#X connect 9 0 4 0;
#X connect 10 0 4 0;
#X connect 11 0 3 0;
#X connect 12 0 6 0;
#X restore 737 391 pd crash;
#X obj 45 85 route 93 stop;
#N canvas 65 97 450 300 crash 0;
#X obj 189 25 inlet;
#X obj 291 165 noise~;
#X obj 189 47 select 0;
#X obj 241 97 / 127;
#X obj 196 177 vline~;
#X obj 196 221 *~;
#X obj 191 331 outlet~;
#X obj 308 120 print;
#X obj 196 199 pow~ 10;
#X msg 242 140 \$1 0 \, 0 2200 0;
#X msg 175 106 0 2000;
#X obj 194 243 hip~ 2000 10;
#X msg 304 64 127;
#X connect 0 0 2 0;
#X connect 1 0 5 1;
#X connect 2 0 10 0;
#X connect 2 1 3 0;
#X connect 3 0 9 0;
#X connect 4 0 8 0;
#X connect 5 0 11 0;
#X connect 8 0 5 0;
#X connect 9 0 4 0;
#X connect 10 0 4 0;
#X connect 11 0 6 0;
#X connect 12 0 3 0;
#X restore 663 385 pd crash;
#X obj 85 155 route 35 36, f 15;
#X obj 186 183 route 37 38 39 40;
#X obj 302 215 route 41 45;
#X obj 362 257 route 43 50;
#X obj 445 300 route 47 48;
#X obj 545 342 route 42;
#X obj 665 343 route 49 52 55 57;
#X obj 492 377 drum-tom 30;
#X obj 254 373 drum-tom 25;
#X obj 375 376 drum-tom 35;
#X connect 0 0 8 0;
#X connect 3 0 1 0;
#X connect 5 0 1 0;
#X connect 6 0 1 0;
#X connect 7 0 1 0;
#X connect 8 2 10 0;
#X connect 9 0 1 0;
#X connect 10 0 3 0;
#X connect 10 1 3 0;
#X connect 10 2 11 0;
#X connect 11 0 5 0;
#X connect 11 1 5 0;
#X connect 11 2 5 0;
#X connect 11 3 5 0;
#X connect 11 4 12 0;
#X connect 12 0 18 0;
#X connect 12 1 18 0;
#X connect 12 2 13 0;
#X connect 13 0 19 0;
#X connect 13 1 19 0;
#X connect 13 2 14 0;
#X connect 14 0 17 0;
#X connect 14 1 17 0;
#X connect 14 2 15 0;
#X connect 15 0 6 0;
#X connect 15 1 16 0;
#X connect 16 0 9 0;
#X connect 16 1 7 0;
#X connect 16 2 9 0;
#X connect 16 3 7 0;
#X connect 16 4 2 0;
#X connect 17 0 1 0;
#X connect 18 0 1 0;
#X connect 19 0 1 0;
