#N canvas 941 213 450 792 10;
#X obj 171 73 inlet;
#X obj 171 95 unpack f f;
#X obj 222 229 mtof;
#X obj 248 312 osc~;
#X obj 93 313 vline~;
#X obj 93 335 *~;
#X obj 94 424 *~;
#X obj 55 732 outlet~;
#X obj 88 117 select 0;
#X msg 73 50 70 127;
#X msg 67 83 70 0;
#X obj 94 497 cos~;
#X obj 94 462 +~ 0.25;
#X obj 249 262 * 1;
#X obj 301 316 osc~;
#X obj 302 266 * 2;
#X msg 57 244 0 100;
#X obj 215 372 *~ 1;
#X obj 122 221 * 1.2;
#X obj 130 268 pack f f;
#X obj 138 180 t f f;
#X obj 72 654 clip~ -1 1;
#X obj 182 438 * 1;
#X msg 97 288 \$1 5 \, \$2 40 5;
#X obj 86 555 lop~ 1600 4;
#X obj 170 221 * 0.5;
#X obj 80 621 *~ 4;
#X obj 141 138 / 127;
#X connect 0 0 1 0;
#X connect 1 0 2 0;
#X connect 1 1 8 0;
#X connect 2 0 13 0;
#X connect 2 0 15 0;
#X connect 2 0 22 0;
#X connect 3 0 17 0;
#X connect 4 0 5 0;
#X connect 4 0 5 1;
#X connect 5 0 6 0;
#X connect 6 0 12 0;
#X connect 8 0 16 0;
#X connect 8 1 27 0;
#X connect 9 0 1 0;
#X connect 10 0 1 0;
#X connect 11 0 24 0;
#X connect 12 0 11 0;
#X connect 13 0 3 0;
#X connect 14 0 17 0;
#X connect 15 0 14 0;
#X connect 16 0 4 0;
#X connect 17 0 6 1;
#X connect 18 0 19 0;
#X connect 19 0 23 0;
#X connect 20 0 18 0;
#X connect 20 1 25 0;
#X connect 21 0 7 0;
#X connect 23 0 4 0;
#X connect 24 0 26 0;
#X connect 25 0 19 1;
#X connect 26 0 21 0;
#X connect 27 0 20 0;
