#N canvas 480 429 450 300 10;
#X obj 100 100 tgl 16 0 empty empty empty 17 7 0 10 -262144 -1 -1 0
1;
#X obj 19 99 inlet;
#X obj 19 237 outlet;
#X obj 19 182 spigot 1;
#X obj 100 120 select 1;
#X msg 100 148 0;
#X msg 153 148 1;
#X obj 169 55 inlet;
#X connect 0 0 4 0;
#X connect 1 0 3 0;
#X connect 3 0 2 0;
#X connect 4 0 5 0;
#X connect 4 1 6 0;
#X connect 5 0 3 1;
#X connect 6 0 3 1;
#X connect 7 0 0 0;
#X coords 0 -1 1 1 16 16 2 100 100;
