#N canvas 592 615 450 300 10;
#X obj 103 8 r \$1;
#X obj 99 165 outlet;
#X obj 99 115 list prepend \$1;
#X obj 103 39 route list;
#X obj 10 81 list prepend list;
#X obj 159 80 list prepend msg;
#X connect 0 0 3 0;
#X connect 2 0 1 0;
#X connect 3 0 4 0;
#X connect 3 1 5 0;
#X connect 4 0 2 0;
#X connect 5 0 2 0;
