#N canvas 294 249 612 487 10;
#X msg 58 133 listen 3000;
#X msg 91 170 listen 0;
#X obj 58 106 loadbang;
#X text 177 171 <- Stop listeneing;
#X text 175 133 <- Start listeneing on port 3000;
#X obj 58 355 gdx-pd-network;
#X msg 237 282 disconnect;
#X msg 153 259 connect localhost 3002;
#X text 323 260 <- Start sending to port 3002;
#X obj 153 225 loadbang;
#X text 323 284 <- Stop sending;
#X obj 258 456 midi-ip;
#X msg 279 418 listen 0;
#X obj 258 347 loadbang;
#X msg 258 374 listen 3001;
#X text 356 418 <- Stop listening midi;
#X text 355 377 <- Start listening midi on 3001;
#X text 134 22 This is the default gdx-pd remote configuration.;
#X text 134 39 All server/client are automatically started;
#X connect 0 0 5 0;
#X connect 1 0 5 0;
#X connect 2 0 0 0;
#X connect 6 0 5 1;
#X connect 7 0 5 1;
#X connect 9 0 7 0;
#X connect 12 0 11 0;
#X connect 13 0 14 0;
#X connect 14 0 11 0;
