#N canvas 555 355 991 717 10;
#X obj 35 116 oscparse;
#X obj 35 143 list trim;
#X obj 34 245 list split 1;
#X obj 50 343 list;
#X obj 34 277 t b s;
#X obj 75 381 send;
#X obj 36 69 netreceive -b -u;
#X obj 36 39 inlet;
#X obj 649 410 netsend -b -u;
#X obj 649 313 list prepend send;
#X obj 649 338 list trim;
#X obj 649 287 oscformat send;
#N canvas 255 213 450 434 subscriptions-\$0 0;
#X obj 300 200 send events-1004;
#X restore 165 653 pd subscriptions-\$0;
#X obj 165 623 s pd-subscriptions-\$0;
#X obj 164 249 list split 1;
#X obj 164 279 t a b;
#X obj 230 310 + 1;
#X obj 196 310 f 1;
#X obj 165 470 list append;
#X obj 194 423 pack f f;
#X obj 247 392 * 20;
#X msg 276 278 1;
#X obj 331 221 loadbang;
#X msg 165 499 obj 10 \$3 gdx-pd-recv \$1 \, connect \$2 0 0 0;
#X obj 193 337 t f f;
#X msg 276 218 reset;
#X floatatom 649 432 5 0 0 0 - - -, f 5;
#X obj 895 244 inlet;
#X msg 529 544 clear;
#X obj 483 229 t b b b;
#X obj 649 252 r events-\$0;
#X obj 479 466 f \$0;
#X msg 479 500 obj 300 200 send events-\$1;
#X text 236 6 This patch enable full duplex communication between Pd
and any remote application. It using OSC protocol. Forward communication
from remote application to Pd is done throw one message type (send)
and is stateless. Backward communication from Pd to remote application
is done throw subscription mecanism : remote application send which
message (subscribe) it want to listen to. Then Pd will forward message
for all subscribtion. This one is statefull and require special considerations
(see clear message). 3 type of OSC messages are currently supported
: - send receiver [..args] : This will send message to Pd. This is
the forward channel from remote application to Pd. - subscribe receiver
: will subscribe to events based on receiver name. Caller is responsible
to send the same name once (Pd doesn't verify subscription duplications).
- clear : will clear all subscriptions. It is recommanded to use clear
message when starting session to prevent message floods., f 106;
#X obj 322 183 print gdx-network-error;
#X obj 34 165 route send subscribe clear write;
#N canvas 861 404 750 561 write 0;
#X obj 80 49 inlet;
#X obj 73 465 tabwrite;
#X obj 193 233 list prepend set;
#X obj 193 255 list trim;
#X obj 193 176 list split 2;
#X obj 193 201 list split 1;
#X obj 126 424 f 0;
#X obj 80 163 list;
#X obj 80 78 t b a;
#X obj 156 425 + 1;
#X obj 54 315 list split 1;
#X obj 54 232 until;
#X obj 54 270 list append;
#X obj 80 199 t b l;
#X obj 136 215 bang;
#X obj 54 341 t f b;
#X text 214 14 write command format : arrayName offset [value1 \, value2
... valueN], f 73;
#X text 212 68 Message is first split in order to initialize destination
name and offset. Then remaining float are deplete and written to the
array.;
#X connect 0 0 8 0;
#X connect 2 0 3 0;
#X connect 3 0 1 0;
#X connect 4 0 5 0;
#X connect 4 1 7 1;
#X connect 5 0 2 0;
#X connect 5 1 6 1;
#X connect 6 0 1 1;
#X connect 6 0 9 0;
#X connect 7 0 13 0;
#X connect 8 0 7 0;
#X connect 8 1 4 0;
#X connect 9 0 6 1;
#X connect 10 0 15 0;
#X connect 10 1 12 1;
#X connect 10 2 14 0;
#X connect 11 0 12 0;
#X connect 12 0 10 0;
#X connect 13 0 11 0;
#X connect 13 1 12 1;
#X connect 14 0 11 1;
#X connect 15 0 1 0;
#X connect 15 1 6 0;
#X restore 191 214 pd write;
#X text 288 344 TODO : group in subpatch ?;
#X connect 0 0 1 0;
#X connect 1 0 35 0;
#X connect 2 0 4 0;
#X connect 2 1 3 1;
#X connect 3 0 5 0;
#X connect 4 0 3 0;
#X connect 4 1 5 1;
#X connect 6 0 0 0;
#X connect 7 0 6 0;
#X connect 8 0 26 0;
#X connect 9 0 10 0;
#X connect 10 0 8 0;
#X connect 11 0 9 0;
#X connect 14 0 15 0;
#X connect 15 0 18 0;
#X connect 15 1 17 0;
#X connect 16 0 17 1;
#X connect 17 0 16 0;
#X connect 17 0 24 0;
#X connect 18 0 23 0;
#X connect 19 0 18 1;
#X connect 20 0 19 1;
#X connect 21 0 17 1;
#X connect 22 0 21 0;
#X connect 23 0 13 0;
#X connect 24 0 19 0;
#X connect 24 1 20 0;
#X connect 25 0 21 0;
#X connect 27 0 8 0;
#X connect 28 0 13 0;
#X connect 29 0 21 0;
#X connect 29 1 31 0;
#X connect 29 2 28 0;
#X connect 30 0 11 0;
#X connect 31 0 32 0;
#X connect 32 0 13 0;
#X connect 35 0 2 0;
#X connect 35 1 14 0;
#X connect 35 2 29 0;
#X connect 35 3 36 0;
#X connect 35 4 34 0;
