#N canvas 65 81 450 979 10;
#X obj 20 14 r recv_bang;
#X obj 20 55 bng 15 250 50 0 empty empty empty 17 7 0 10 -262144 -1
-1;
#X obj 20 88 r recv_float;
#X floatatom 20 114 15 0 0 0 - - -, f 15;
#X obj 19 155 r recv_list;
#X obj 19 179 list prepend set;
#X obj 19 201 list trim;
#X msg 19 223 $  ⠴;
#X obj 155 172 print recv_list;
#X obj 17 295 list prepend set;
#X obj 17 317 list trim;
#X msg 17 339 foo bar;
#X obj 17 271 r recv_msg;
#X obj 153 288 print recv_msg;
#X obj 17 386 r recv_sym;
#X symbolatom 17 425 40 0 0 0 - - -, f 40;
#X obj 141 403 print recv_sym;
#X floatatom 21 511 5 0 0 0 - - -, f 5;
#X obj 22 535 / 10;
#X floatatom 22 584 5 0 0 0 - - -, f 5;
#X obj 22 603 i;
#X msg 22 636 foo bar 45 62.3;
#X obj 20 488 bng 15 250 50 0 empty empty empty 17 7 0 10 -262144 -1
-1;
#X msg 23 753 foo bar 45 62.3;
#X obj 40 778 list;
#X msg 22 668 42;
#X msg 24 696 43 56;
#X msg 24 722 hello 45 67;
#X obj 305 633 s send_any;
#X floatatom 22 557 5 0 0 0 - - -, f 5;
#N canvas 0 50 450 250 (subpatch) 0;
#X array array_to_write 8 float 2;
#X coords 0 100 8 -100 200 140 1 0 0;
#X restore 189 777 graph;
#X obj 14 828 table big_array 44100;
#X obj 17 906 tabread~ big_array;
#X obj 16 858 phasor~ 1;
#X obj 16 880 *~ 44100;
#X obj 16 929 *~ 0;
#X obj 16 951 dac~;
#X obj 128 857 tgl 15 0 empty empty empty 17 7 0 10 -262144 -1 -1 0
1;
#X connect 0 0 1 0;
#X connect 2 0 3 0;
#X connect 4 0 5 0;
#X connect 4 0 8 0;
#X connect 5 0 6 0;
#X connect 6 0 7 0;
#X connect 9 0 10 0;
#X connect 10 0 11 0;
#X connect 12 0 9 0;
#X connect 12 0 13 0;
#X connect 14 0 15 0;
#X connect 14 0 16 0;
#X connect 17 0 18 0;
#X connect 18 0 29 0;
#X connect 19 0 20 0;
#X connect 20 0 28 0;
#X connect 21 0 28 0;
#X connect 22 0 28 0;
#X connect 23 0 24 0;
#X connect 24 0 28 0;
#X connect 25 0 28 0;
#X connect 26 0 28 0;
#X connect 27 0 28 0;
#X connect 29 0 28 0;
#X connect 32 0 35 0;
#X connect 33 0 34 0;
#X connect 34 0 32 0;
#X connect 35 0 36 0;
#X connect 35 0 36 1;
#X connect 37 0 35 1;
