#N canvas 65 81 1196 485 10;
#X obj 142 82 r notein;
#X msg 142 104 set \$1 \$2 \$3;
#X msg 142 126 58 0 1;
#X msg 255 106 set \$1 \$2 \$3;
#X msg 255 128 62 0 1;
#X msg 408 108 set \$1 \$2 \$3;
#X msg 408 130 62 0 1;
#X msg 542 132 33 1;
#X msg 649 135 62 0 1;
#X msg 763 135 6583 1;
#X obj 763 91 r bendin;
#X msg 763 113 set \$1 \$2;
#X obj 542 88 r pgmin;
#X msg 542 110 set \$1 \$2;
#X obj 255 84 r polytouchin;
#X obj 408 86 r ctlin;
#X obj 649 91 r touchin;
#X msg 650 113 set \$1 \$2;
#X connect 0 0 1 0;
#X connect 1 0 2 0;
#X connect 3 0 4 0;
#X connect 5 0 6 0;
#X connect 10 0 11 0;
#X connect 11 0 9 0;
#X connect 12 0 13 0;
#X connect 13 0 7 0;
#X connect 14 0 3 0;
#X connect 15 0 5 0;
#X connect 16 0 17 0;
#X connect 17 0 8 0;
