#N canvas 702 146 1053 867 10;
#X obj 83 577 notein;
#X obj 73 625 pack f f f;
#X obj 383 76 netreceive -u -b;
#X obj 383 98 list split 1;
#X obj 393 160 >> 4;
#X obj 393 137 t f f;
#X obj 393 192 pack f f;
#X obj 445 158 & 15;
#X obj 423 221 list append;
#X obj 556 340 unpack f f;
#X obj 557 382 + 1;
#X obj 623 380 + 1;
#X obj 576 408 swap;
#X obj 576 430 pack f f;
#X obj 423 243 route 8 9 10 11 12 13 14;
#X text 551 313 Program Change;
#X obj 576 462 s pgmin;
#X obj 577 500 pgmin;
#X obj 577 558 pack f f;
#X obj 577 591 s pgmin;
#X obj 116 347 unpack f f f;
#X obj 118 454 pack f f f;
#X obj 116 380 + 1;
#X obj 116 402 swap;
#X obj 61 666 s notein;
#X obj 118 519 s notein;
#X obj 18 348 unpack f f f;
#X obj 20 455 pack f f f;
#X obj 18 381 + 1;
#X obj 18 403 swap;
#X msg 68 401 0;
#X obj 423 342 unpack f f f;
#X obj 425 449 pack f f f;
#X obj 423 375 + 1;
#X obj 423 397 swap;
#X obj 429 553 ctlin;
#X obj 429 609 pack f f f;
#X obj 429 637 s ctlin;
#X obj 425 501 s ctlin;
#X obj 817 505 bendin;
#X obj 709 503 touchin;
#X obj 243 554 polytouchin;
#X obj 243 577 pack f f f;
#X obj 243 599 s polytouchin;
#X obj 235 345 unpack f f f;
#X obj 237 452 pack f f f;
#X obj 235 378 + 1;
#X obj 235 400 swap;
#X obj 237 517 s polytouchin;
#X obj 709 525 pack f f;
#X obj 709 547 s touchin;
#X obj 723 433 s touchin;
#X obj 710 313 unpack f f;
#X obj 711 355 + 1;
#X obj 730 381 swap;
#X obj 730 403 pack f f;
#X obj 817 527 pack f f;
#X obj 817 549 s bendin;
#X obj 832 330 + 1;
#X obj 843 413 swap;
#X obj 913 333 << 7;
#X obj 832 308 unpack f f f;
#X obj 879 356 +;
#X obj 840 442 pack f f;
#X obj 840 471 s bendin;
#X obj 327 32 inlet;
#X text 351 309 Control change (inverted): velocity \, note \, channel
;
#X connect 0 0 1 0;
#X connect 0 1 1 1;
#X connect 0 2 1 2;
#X connect 1 0 24 0;
#X connect 2 0 3 0;
#X connect 3 0 5 0;
#X connect 3 1 8 1;
#X connect 4 0 6 0;
#X connect 5 0 4 0;
#X connect 5 1 7 0;
#X connect 6 0 8 0;
#X connect 7 0 6 1;
#X connect 8 0 14 0;
#X connect 9 0 10 0;
#X connect 9 1 11 0;
#X connect 10 0 12 0;
#X connect 11 0 12 1;
#X connect 12 0 13 0;
#X connect 12 1 13 1;
#X connect 13 0 16 0;
#X connect 14 0 26 0;
#X connect 14 1 20 0;
#X connect 14 2 44 0;
#X connect 14 3 31 0;
#X connect 14 4 9 0;
#X connect 14 5 52 0;
#X connect 14 6 61 0;
#X connect 17 0 18 0;
#X connect 17 1 18 1;
#X connect 18 0 19 0;
#X connect 20 0 22 0;
#X connect 20 1 23 1;
#X connect 20 2 21 1;
#X connect 21 0 25 0;
#X connect 22 0 23 0;
#X connect 23 0 21 0;
#X connect 23 1 21 2;
#X connect 26 0 28 0;
#X connect 26 1 29 1;
#X connect 26 2 30 0;
#X connect 27 0 25 0;
#X connect 28 0 29 0;
#X connect 29 0 27 0;
#X connect 29 1 27 2;
#X connect 30 0 27 1;
#X connect 31 0 33 0;
#X connect 31 1 32 1;
#X connect 31 2 34 1;
#X connect 32 0 38 0;
#X connect 33 0 34 0;
#X connect 34 0 32 0;
#X connect 34 1 32 2;
#X connect 35 0 36 0;
#X connect 35 1 36 1;
#X connect 35 2 36 2;
#X connect 36 0 37 0;
#X connect 39 0 56 0;
#X connect 39 1 56 1;
#X connect 40 0 49 0;
#X connect 40 1 49 1;
#X connect 41 0 42 0;
#X connect 41 1 42 1;
#X connect 41 2 42 2;
#X connect 42 0 43 0;
#X connect 44 0 46 0;
#X connect 44 1 47 1;
#X connect 44 2 45 1;
#X connect 45 0 48 0;
#X connect 46 0 47 0;
#X connect 47 0 45 0;
#X connect 47 1 45 2;
#X connect 49 0 50 0;
#X connect 52 0 53 0;
#X connect 52 1 54 1;
#X connect 53 0 54 0;
#X connect 54 0 55 0;
#X connect 54 1 55 1;
#X connect 55 0 51 0;
#X connect 56 0 57 0;
#X connect 58 0 59 0;
#X connect 59 0 63 0;
#X connect 59 1 63 1;
#X connect 60 0 62 1;
#X connect 61 0 58 0;
#X connect 61 1 62 0;
#X connect 61 2 60 0;
#X connect 62 0 59 1;
#X connect 63 0 64 0;
#X connect 65 0 2 0;
