#N canvas 855 267 559 395 10;
#X obj 255 320 dac~;
#X obj 255 278 *~ 1;
#N canvas 428 377 450 300 formant 0;
#X obj 141 44 inlet;
#X obj 63 73 noise~;
#X obj 69 145 bp~ 1000 100;
#X obj 69 269 outlet~;
#X obj 68 187 *~ 1;
#X obj 143 93 unpack f f f f;
#X obj 223 167 vline~;
#X obj 223 189 *~;
#X msg 223 145 1 5 \, 0 \$1 5;
#X obj 98 232 *~;
#X connect 0 0 5 0;
#X connect 1 0 2 0;
#X connect 2 0 4 0;
#X connect 4 0 9 0;
#X connect 5 0 2 1;
#X connect 5 1 2 2;
#X connect 5 2 4 1;
#X connect 5 3 8 0;
#X connect 6 0 7 0;
#X connect 6 0 7 1;
#X connect 7 0 9 1;
#X connect 8 0 6 0;
#X connect 9 0 3 0;
#X restore 19 176 pd formant;
#X obj 280 14 loadbang;
#X obj 280 64 bang;
#X obj 361 16 bng 15 250 50 0 empty empty empty 17 7 0 10 -262144 -1
-1;
#N canvas 428 377 450 300 formant 0;
#X obj 141 44 inlet;
#X obj 63 73 noise~;
#X obj 69 145 bp~ 1000 100;
#X obj 69 269 outlet~;
#X obj 68 187 *~ 1;
#X obj 143 93 unpack f f f f;
#X obj 223 167 vline~;
#X obj 223 189 *~;
#X msg 223 145 1 5 \, 0 \$1 5;
#X obj 98 232 *~;
#X connect 0 0 5 0;
#X connect 1 0 2 0;
#X connect 2 0 4 0;
#X connect 4 0 9 0;
#X connect 5 0 2 1;
#X connect 5 1 2 2;
#X connect 5 2 4 1;
#X connect 5 3 8 0;
#X connect 6 0 7 0;
#X connect 6 0 7 1;
#X connect 7 0 9 1;
#X connect 8 0 6 0;
#X connect 9 0 3 0;
#X restore 155 173 pd formant;
#N canvas 428 377 450 300 formant 0;
#X obj 141 44 inlet;
#X obj 63 73 noise~;
#X obj 69 145 bp~ 1000 100;
#X obj 69 269 outlet~;
#X obj 68 187 *~ 1;
#X obj 143 93 unpack f f f f;
#X obj 223 167 vline~;
#X obj 223 189 *~;
#X msg 223 145 1 5 \, 0 \$1 5;
#X obj 98 232 *~;
#X connect 0 0 5 0;
#X connect 1 0 2 0;
#X connect 2 0 4 0;
#X connect 4 0 9 0;
#X connect 5 0 2 1;
#X connect 5 1 2 2;
#X connect 5 2 4 1;
#X connect 5 3 8 0;
#X connect 6 0 7 0;
#X connect 6 0 7 1;
#X connect 7 0 9 1;
#X connect 8 0 6 0;
#X connect 9 0 3 0;
#X restore 279 170 pd formant;
#N canvas 428 377 450 300 formant 0;
#X obj 141 44 inlet;
#X obj 63 73 noise~;
#X obj 69 145 bp~ 1000 100;
#X obj 69 269 outlet~;
#X obj 68 187 *~ 1;
#X obj 143 93 unpack f f f f;
#X obj 223 167 vline~;
#X obj 223 189 *~;
#X msg 223 145 1 5 \, 0 \$1 5;
#X obj 98 232 *~;
#X connect 0 0 5 0;
#X connect 1 0 2 0;
#X connect 2 0 4 0;
#X connect 4 0 9 0;
#X connect 5 0 2 1;
#X connect 5 1 2 2;
#X connect 5 2 4 1;
#X connect 5 3 8 0;
#X connect 6 0 7 0;
#X connect 6 0 7 1;
#X connect 7 0 9 1;
#X connect 8 0 6 0;
#X connect 9 0 3 0;
#X restore 424 168 pd formant;
#X msg 157 124 2300 330 5 1300;
#X msg 280 121 3256 330 7 600;
#X msg 424 119 1234 130 5 200;
#X msg 21 121 7800 630 1 3000;
#X connect 1 0 0 0;
#X connect 1 0 0 1;
#X connect 2 0 1 0;
#X connect 3 0 4 0;
#X connect 4 0 12 0;
#X connect 4 0 9 0;
#X connect 4 0 10 0;
#X connect 4 0 11 0;
#X connect 5 0 4 0;
#X connect 6 0 1 0;
#X connect 7 0 1 0;
#X connect 8 0 1 0;
#X connect 9 0 6 0;
#X connect 10 0 7 0;
#X connect 11 0 8 0;
#X connect 12 0 2 0;
