#N canvas 348 114 1339 924 10;
#X obj 148 556 rfft~;
#X obj 148 582 /~ 64;
#X msg 37 118 resize \$1;
#X obj 451 344 r music-pitch;
#X obj 418 459 r music-vol;
#X obj 406 634 dac~;
#X obj 365 767 env~;
#X obj 365 789 dbtorms;
#X obj 391 892 s env;
#X obj 365 736 bp~ 300 5;
#X obj 383 30 r music-config;
#X obj 383 52 unpack f f;
#X obj 206 494 tabread4~ music-l;
#X obj 426 322 *~ 1;
#X obj 383 160 /;
#X obj 383 182 * 1000;
#X obj 365 215 f;
#X obj 426 386 *~ 1;
#X text 500 30 <- samples per channel \, sample rate;
#X msg 365 238 0 \, 1 \$1;
#X obj 147 615 tabsend~ fft-l;
#X obj 418 481 sig~ 1;
#X obj 418 503 lop~ 1;
#X obj 392 569 *~;
#X obj 626 557 rfft~;
#X obj 626 583 /~ 64;
#X obj 455 768 env~;
#X obj 455 790 dbtorms;
#X obj 455 737 bp~ 300 5;
#X obj 437 568 *~;
#X obj 39 221 array define fft-l 64;
#X obj 39 248 array define fft-r 64;
#X obj 264 126 r music;
#X obj 264 148 route stop play;
#X msg 265 218 0;
#X obj 391 838 pack f f;
#X obj 387 666 r filter;
#X obj 387 688 unpack f f;
#X obj 261 345 print;
#X obj 365 265 vline~;
#X obj 588 498 tabread4~ music-r;
#X obj 625 616 tabsend~ fft-r;
#X obj 58 151 array define music-l;
#X obj 61 180 array define music-r;
#X text 758 140 Song playing with realtime FFT and envelop detection
;
#X text 781 165 Send 'music-config' with sample count per channel and
sample rate.;
#X text 782 205 Write music to 'music-l' and 'music-r' arrays.;
#X text 782 235 Send message 'play' or 'stop' to symbol 'music'.;
#X text 782 305 [Optional] 'filter' with frequency and q (default 300
5);
#X text 782 285 [Optional] 'music-vol' (default 1);
#X text 782 265 [Optional] 'music-pitch' (default 1);
#X text 782 325 [Optional] read 'fft-l' and 'fft-r' arrays (64 samples)
;
#X connect 0 0 1 0;
#X connect 1 0 20 0;
#X connect 2 0 42 0;
#X connect 2 0 43 0;
#X connect 3 0 17 1;
#X connect 4 0 21 0;
#X connect 6 0 7 0;
#X connect 7 0 35 0;
#X connect 9 0 6 0;
#X connect 10 0 11 0;
#X connect 11 0 14 0;
#X connect 11 0 2 0;
#X connect 11 0 13 1;
#X connect 11 1 14 1;
#X connect 12 0 0 0;
#X connect 12 0 9 0;
#X connect 12 0 23 0;
#X connect 13 0 17 0;
#X connect 14 0 15 0;
#X connect 15 0 16 1;
#X connect 16 0 19 0;
#X connect 17 0 12 0;
#X connect 17 0 40 0;
#X connect 19 0 39 0;
#X connect 19 0 38 0;
#X connect 21 0 22 0;
#X connect 22 0 23 1;
#X connect 22 0 29 1;
#X connect 23 0 5 0;
#X connect 24 0 25 0;
#X connect 25 0 41 0;
#X connect 26 0 27 0;
#X connect 27 0 35 1;
#X connect 28 0 26 0;
#X connect 29 0 5 1;
#X connect 32 0 33 0;
#X connect 33 0 34 0;
#X connect 33 1 16 0;
#X connect 34 0 39 0;
#X connect 35 0 8 0;
#X connect 36 0 37 0;
#X connect 37 0 28 1;
#X connect 37 0 9 1;
#X connect 37 1 28 2;
#X connect 37 1 9 2;
#X connect 39 0 13 0;
#X connect 40 0 24 0;
#X connect 40 0 28 0;
#X connect 40 0 29 0;
