#N canvas 830 310 992 736 10;
#X obj 106 704 throw~ left;
#X obj 289 701 throw~ right;
#X obj 698 418 switch~;
#X obj 825 347 loadbang;
#X msg 825 369 0;
#X obj 202 600 tabread4~;
#X msg 651 325 1;
#X msg 766 353 0;
#X obj 316 673 r \$1-pan;
#X obj 278 38 r \$1;
#X msg 127 546 set smp-\$1;
#X text 590 477 <- smp_id \, length \, volume \, pitch \, pan \, looping
;
#X obj 368 443 *~ 44100;
#X obj 189 660 *~ 1;
#X obj 278 60 route play stop;
#X obj 347 416 phasor~ 1;
#X obj 123 493 r \$1-smp;
#X obj 78 273 s \$1-smp;
#X msg 75 181 13;
#X obj 303 590 r \$1-vol;
#X obj 232 201 s \$1-vol;
#X obj 135 251 s \$1-len;
#X obj 596 597 s \$1;
#X msg 596 574 stop;
#X obj 287 174 s \$1-pitch;
#X obj 336 151 s \$1-pan;
#X obj 405 151 s \$1-loop;
#X obj 501 374 r \$1-len;
#X obj 520 398 r \$1-loop;
#X obj 501 454 + 0;
#X obj 545 453 - 1;
#X msg 597 512 0;
#X obj 401 355 r \$1-pitch;
#X obj 347 364 sig~ 1;
#X obj 445 546 threshold~ 0.001 0 0.002 0;
#X obj 539 293 r \$1-smp;
#X msg 539 315 0;
#X obj 157 65 print debug-\$1;
#X obj 64 621 print bank;
#X obj 347 386 *~ 1;
#X obj 343 531 env~;
#X obj 347 238 r \$1-len;
#X obj 266 117 unpack f f f f f f f;
#X obj 183 228 s \$1-rate;
#X obj 373 266 r \$1-rate;
#X obj 347 291 swap;
#X obj 347 313 /;
#X connect 3 0 4 0;
#X connect 4 0 2 0;
#X connect 5 0 13 0;
#X connect 6 0 2 0;
#X connect 7 0 2 0;
#X connect 9 0 14 0;
#X connect 9 0 37 0;
#X connect 10 0 5 0;
#X connect 10 0 38 0;
#X connect 12 0 5 0;
#X connect 13 0 0 0;
#X connect 13 0 1 0;
#X connect 14 0 42 0;
#X connect 14 1 7 0;
#X connect 15 0 12 0;
#X connect 15 0 34 0;
#X connect 16 0 10 0;
#X connect 18 0 17 0;
#X connect 19 0 13 1;
#X connect 23 0 22 0;
#X connect 27 0 12 1;
#X connect 27 0 29 0;
#X connect 28 0 30 0;
#X connect 29 0 31 0;
#X connect 30 0 29 1;
#X connect 31 0 34 1;
#X connect 32 0 39 1;
#X connect 33 0 39 0;
#X connect 34 1 23 0;
#X connect 35 0 36 0;
#X connect 35 0 6 0;
#X connect 36 0 15 1;
#X connect 39 0 15 0;
#X connect 41 0 45 0;
#X connect 42 0 17 0;
#X connect 42 1 21 0;
#X connect 42 2 43 0;
#X connect 42 3 20 0;
#X connect 42 4 24 0;
#X connect 42 5 25 0;
#X connect 42 6 26 0;
#X connect 44 0 45 1;
#X connect 45 0 46 0;
#X connect 45 1 46 1;
#X connect 46 0 33 0;
