#N canvas 846 194 902 438 10;
#X obj 277 353 dac~;
#X obj 170 232 catch~ left;
#X obj 328 243 catch~ right;
#N canvas 723 715 450 300 voices 0;
#X restore 244 197 pd voices;
#N canvas 1245 715 450 300 samples 0;
#X restore 542 267 pd samples;
#X obj 238 166 s pd-voices;
#X obj 542 215 s pd-samples;
#X obj 186 49 r sound-manager-voices;
#X obj 186 88 route clear add;
#X msg 186 124 clear;
#X obj 490 84 route clear add;
#X msg 490 120 clear;
#X obj 490 45 r sound-manager-samples;
#X msg 540 180 obj 0 0 array define smp-\$1 \$2;
#X msg 390 45 add 13 44100;
#X msg 53 30 add 46;
#X msg 238 124 obj 0 0 sound-voice snd-\$1;
#X obj 167 299 clip~ -1 1;
#X obj 335 316 clip~ -1 1;
#X obj 342 286 *~ 0.5;
#X obj 177 269 *~ 0.5;
#X connect 1 0 20 0;
#X connect 2 0 19 0;
#X connect 7 0 8 0;
#X connect 8 0 9 0;
#X connect 8 1 16 0;
#X connect 9 0 5 0;
#X connect 10 0 11 0;
#X connect 10 1 13 0;
#X connect 11 0 6 0;
#X connect 12 0 10 0;
#X connect 13 0 6 0;
#X connect 14 0 10 0;
#X connect 15 0 8 0;
#X connect 16 0 5 0;
#X connect 17 0 0 0;
#X connect 18 0 0 1;
#X connect 19 0 18 0;
#X connect 20 0 17 0;
