#N canvas 331 358 450 462 10;
#X obj 40 299 sound-voice snd-44;
#X obj 232 300 array define smp-1 44100;
#X obj 68 135 s snd-44;
#X msg 69 6 play 1 44100 1 1 0 0;
#X obj 134 342 catch~ left;
#X obj 231 343 catch~ right;
#X obj 231 365 env~;
#X floatatom 231 387 5 0 0 0 - - -, f 5;
#X obj 135 368 env~;
#X floatatom 135 390 5 0 0 0 - - -, f 5;
#X msg 25 29 stop;
#X obj 173 238 soundfiler;
#X msg 173 214 read -resize shotgun.wav smp-1;
#X obj 66 375 dac~;
#X msg 83 34 play 1 44100 1 2 0 0;
#X msg 104 68 play 1 44100 1 0.5 0 0;
#X msg 118 96 play 1 44100 1 0.3 0 0;
#X obj 345 28 tgl 15 0 empty empty empty 17 7 0 10 -262144 -1 -1 0
1;
#X obj 346 48 metro 100;
#X connect 3 0 2 0;
#X connect 4 0 8 0;
#X connect 4 0 13 0;
#X connect 5 0 6 0;
#X connect 5 0 13 1;
#X connect 6 0 7 0;
#X connect 8 0 9 0;
#X connect 10 0 2 0;
#X connect 12 0 11 0;
#X connect 14 0 2 0;
#X connect 15 0 2 0;
#X connect 16 0 2 0;
#X connect 17 0 18 0;
#X connect 18 0 14 0;
