#N canvas 256 229 703 357 10;
#X obj 289 152 sound-manager;
#X obj 27 109 s sound-manager-samples;
#X obj 28 222 s sound-manager-voices;
#X obj 27 166 soundfiler;
#X msg 27 142 read -resize shotgun.wav smp-1;
#X msg 382 61 stop;
#X msg 384 221 stop;
#X msg 27 80 clear \, add 1 44100;
#X msg 28 193 clear \, add 1 \, add 2 \, add 3;
#X obj 427 327 s snd-1;
#X obj 425 167 s snd-2;
#X msg 426 38 play 1 16252 11025 1 1 0 0;
#X msg 440 66 play 1 44100 11025 1 2 0 0;
#X msg 461 100 play 1 44100 11025 1 0.5 0 0;
#X msg 475 128 play 1 44100 11025 1 0.3 0 0;
#X msg 428 198 play 1 44100 11025 1 1 0 0;
#X msg 442 226 play 1 12000 11025 1 2 0 0;
#X msg 463 260 play 1 44100 11025 1 0.5 0 0;
#X msg 477 288 play 1 44100 11025 1 0.3 0 0;
#X connect 4 0 3 0;
#X connect 5 0 10 0;
#X connect 6 0 9 0;
#X connect 7 0 1 0;
#X connect 8 0 2 0;
#X connect 11 0 10 0;
#X connect 12 0 10 0;
#X connect 13 0 10 0;
#X connect 14 0 10 0;
#X connect 15 0 9 0;
#X connect 16 0 9 0;
#X connect 17 0 9 0;
#X connect 18 0 9 0;
