#N canvas 411 280 1040 719 10;
#X obj 35 116 oscparse;
#X obj 35 143 list trim;
#X obj 34 245 list split 1;
#X obj 50 343 list;
#X obj 34 277 t b s;
#X obj 75 381 send;
#X obj 36 69 netreceive -b -u;
#X obj 36 39 inlet;
#X obj 34 165 route send subscribe;
#X obj 651 299 netsend -b -u;
#X obj 651 202 list prepend send;
#X obj 651 227 list trim;
#X obj 651 176 oscformat send;
#N canvas 264 201 450 434 subscriptions-\$0 0;
#X obj 287 207 outlet;
#X restore 651 117 pd subscriptions-\$0;
#X obj 279 501 s pd-subscriptions-\$0;
#X obj 278 225 list split 1;
#X obj 278 255 t a b;
#X obj 344 286 + 1;
#X obj 310 286 f 1;
#X obj 279 446 list append;
#X obj 308 399 pack f f;
#X obj 361 368 * 20;
#X msg 397 239 1;
#X obj 454 195 loadbang;
#X msg 279 475 obj 10 \$3 gdx-pd-recv \$1 \, connect \$2 0 0 0;
#X obj 307 313 t f f;
#X msg 385 169 reset;
#X floatatom 651 321 5 0 0 0 - - -, f 5;
#X obj 651 145 list;
#X obj 897 133 inlet;
#X connect 0 0 1 0;
#X connect 1 0 8 0;
#X connect 2 0 4 0;
#X connect 2 1 3 1;
#X connect 3 0 5 0;
#X connect 4 0 3 0;
#X connect 4 1 5 1;
#X connect 6 0 0 0;
#X connect 7 0 6 0;
#X connect 8 0 2 0;
#X connect 8 1 15 0;
#X connect 9 0 27 0;
#X connect 10 0 11 0;
#X connect 11 0 9 0;
#X connect 12 0 10 0;
#X connect 13 0 28 0;
#X connect 15 0 16 0;
#X connect 16 0 19 0;
#X connect 16 1 18 0;
#X connect 17 0 18 1;
#X connect 18 0 17 0;
#X connect 18 0 25 0;
#X connect 19 0 24 0;
#X connect 20 0 19 1;
#X connect 21 0 20 1;
#X connect 22 0 18 1;
#X connect 23 0 22 0;
#X connect 24 0 14 0;
#X connect 25 0 20 0;
#X connect 25 1 21 0;
#X connect 26 0 22 0;
#X connect 28 0 12 0;
#X connect 29 0 9 0;
