#N canvas 625 384 209 415 10;
#X obj 35 116 oscparse;
#X obj 34 165 route send;
#X obj 35 143 list trim;
#X obj 35 192 list split 1;
#X obj 51 290 list;
#X obj 35 224 t b s;
#X obj 76 328 send;
#X obj 36 69 netreceive -b -u;
#X obj 36 39 inlet;
#X connect 0 0 2 0;
#X connect 1 0 3 0;
#X connect 2 0 1 0;
#X connect 3 0 5 0;
#X connect 3 1 4 1;
#X connect 4 0 6 0;
#X connect 5 0 4 0;
#X connect 5 1 6 1;
#X connect 7 0 0 0;
#X connect 8 0 7 0;
