#N canvas 65 53 1855 1027 10;
#X obj 1543 337 midi-drum;
#X obj 220 89 midi-patch;
#X obj 246 312 poly-guitar;
#X obj 461 312 poly-chroma;
#X obj 566 312 poly-brass;
#X obj 358 311 poly-bass;
#X obj 612 918 dac~;
#X obj 716 559 r volume;
#X obj 790 739 r pan;
#X obj 596 851 *~ 1;
#X obj 636 852 *~ 1;
#X floatatom 790 837 5 0 0 0 - - -, f 5;
#X floatatom 829 837 5 0 0 0 - - -, f 5;
#X obj 855 748 hsl 128 15 -1 1 0 0 empty empty empty -2 -8 0 10 -262144
-1 -1 0 1;
#X obj 790 778 panner;
#X msg 851 713 0;
#X obj 738 906 print vol;
#X obj 620 747 clip~ -1 1;
#X obj 1544 446 *~ 0.5;
#X obj 607 695 *~ 0.5;
#X msg 767 696 bang;
#X floatatom 696 642 5 0 0 0 - - -, f 5;
#X floatatom 699 673 5 0 0 0 - - -, f 5;
#X floatatom 706 700 5 0 0 0 - - -, f 5;
#X floatatom 765 597 5 0 0 0 - - -, f 5;
#X obj 765 616 mtof;
#X obj 627 799 *~ 0.5;
#X obj 505 777 *~ 0.5;
#X obj 413 663 mixer;
#X floatatom 372 727 5 0 0 0 - - -, f 5;
#X floatatom 507 691 5 0 0 0 - - -, f 5;
#X obj 382 610 hsl 128 15 0 1 0 0 empty empty empty -2 -8 0 10 -262144
-1 -1 0 1;
#X msg 370 572 0.5;
#X floatatom 696 846 5 0 0 0 - - -, f 5;
#X floatatom 712 874 5 0 0 0 - - -, f 5;
#N canvas 510 167 701 579 reverb 0;
#X obj 171 28 inlet~;
#X obj 112 523 outlet~;
#X obj 319 504 outlet~;
#X obj 72 130 delwrite~ rev 2000;
#X obj 23 186 clip~ -1 1;
#X obj 247 49 hsl 128 15 0 0.999 0 0 empty empty empty -2 -8 0 10 -262144
-1 -1 0 1;
#X obj 254 122 hsl 128 15 0.1 1000 0 0 empty empty empty -2 -8 0 10
-262144 -1 -1 0 1;
#X floatatom 251 142 5 0 0 0 - - -, f 5;
#X obj 228 189 delread~ rev 120;
#X obj 23 219 *~ 0.6;
#X obj 219 342 lop~ 1000;
#X obj 516 348 hsl 128 15 1.27 10000 1 0 empty empty empty -2 -8 0
10 -262144 -1 -1 0 1;
#X obj 349 363 hsl 128 15 1.27 10000 1 0 empty empty empty -2 -8 0
10 -262144 -1 -1 0 1;
#X obj 219 407 hip~ 1000;
#X obj 55 433 delwrite~ phase 500;
#X obj 111 487 delread~ phase 50;
#X connect 0 0 3 0;
#X connect 4 0 9 0;
#X connect 5 0 9 1;
#X connect 6 0 7 0;
#X connect 6 0 8 0;
#X connect 8 0 4 0;
#X connect 8 0 10 0;
#X connect 9 0 3 0;
#X connect 10 0 13 0;
#X connect 11 0 10 1;
#X connect 12 0 13 1;
#X connect 13 0 2 0;
#X connect 13 0 14 0;
#X connect 15 0 1 0;
#X restore 504 812 pd reverb;
#X obj 489 511 *~ 0.1;
#X obj 424 557 r reverb;
#X obj 220 36 midi-pgm;
#X obj 158 310 poly-organ;
#X obj 292 37 midi-wrapper;
#X connect 0 0 18 0;
#X connect 1 0 39 0;
#X connect 1 2 39 0;
#X connect 1 3 2 0;
#X connect 1 4 5 0;
#X connect 1 6 3 0;
#X connect 1 7 4 0;
#X connect 1 9 4 0;
#X connect 1 9 39 0;
#X connect 1 16 0 0;
#X connect 2 0 36 0;
#X connect 3 0 36 0;
#X connect 4 0 36 0;
#X connect 5 0 36 0;
#X connect 7 0 16 0;
#X connect 7 0 19 1;
#X connect 8 0 14 0;
#X connect 9 0 6 0;
#X connect 10 0 6 1;
#X connect 13 0 14 0;
#X connect 14 0 9 1;
#X connect 14 0 11 0;
#X connect 14 0 16 0;
#X connect 14 1 10 1;
#X connect 14 1 12 0;
#X connect 14 1 16 0;
#X connect 15 0 13 0;
#X connect 17 0 26 0;
#X connect 17 0 27 0;
#X connect 18 0 19 0;
#X connect 19 0 17 0;
#X connect 24 0 25 0;
#X connect 26 0 10 0;
#X connect 26 0 9 0;
#X connect 27 0 35 0;
#X connect 28 0 29 0;
#X connect 28 0 26 1;
#X connect 28 1 30 0;
#X connect 28 1 27 1;
#X connect 31 0 28 0;
#X connect 32 0 31 0;
#X connect 35 0 9 0;
#X connect 35 1 10 0;
#X connect 36 0 19 0;
#X connect 37 0 28 0;
#X connect 38 0 1 0;
#X connect 39 0 36 0;
