#N canvas 267 131 1311 739 10;
#X obj 45 38 inlet;
#X obj 130 634 outlet~;
#X obj 74 367 bass-drum;
#X text 57 4 http://computermusicresource.com/GM.Percussion.KeyMap.html
;
#X obj 143 421 snare-drum;
#N canvas 152 352 535 398 hh 0;
#X obj 152 11 inlet;
#X obj 281 168 noise~;
#X obj 179 50 select 0;
#X obj 225 91 / 127;
#X obj 186 180 vline~;
#X obj 186 202 *~;
#X obj 186 224 *~;
#X obj 181 334 outlet~;
#X msg 276 35 127;
#X msg 165 110 0 20;
#X msg 225 131 \$1 5 \, 0 20 5;
#X obj 257 210 * 1000;
#X obj 257 246 + 4000;
#X obj 335 19 inlet;
#X obj 335 78 / 127;
#X obj 320 214 * 3000;
#X obj 181 284 bp~ 5000 4;
#X msg 322 141 \$1 5 \, 0.3 100 5 \, 0 1700 100;
#X connect 0 0 2 0;
#X connect 1 0 6 1;
#X connect 2 0 9 0;
#X connect 2 1 3 0;
#X connect 3 0 10 0;
#X connect 4 0 5 0;
#X connect 4 0 5 1;
#X connect 5 0 6 0;
#X connect 6 0 16 0;
#X connect 8 0 2 0;
#X connect 9 0 4 0;
#X connect 10 0 4 0;
#X connect 11 0 12 0;
#X connect 12 0 16 1;
#X connect 13 0 14 0;
#X connect 14 0 17 0;
#X connect 16 0 7 0;
#X connect 17 0 4 0;
#X restore 589 386 pd hh;
#N canvas 97 392 450 300 crash 0;
#X obj 189 25 inlet;
#X obj 291 165 noise~;
#X obj 189 47 select 0;
#X obj 241 97 / 127;
#X obj 196 177 vline~;
#X obj 196 221 *~;
#X obj 191 331 outlet~;
#X obj 308 120 print;
#X obj 196 199 pow~ 10;
#X msg 242 140 \$1 0 \, 0 2200 0;
#X msg 175 106 0 2000;
#X msg 277 18 127;
#X obj 194 243 hip~ 800 30;
#X connect 0 0 2 0;
#X connect 1 0 5 1;
#X connect 2 0 10 0;
#X connect 2 1 3 0;
#X connect 3 0 9 0;
#X connect 4 0 8 0;
#X connect 5 0 12 0;
#X connect 8 0 5 0;
#X connect 9 0 4 0;
#X connect 10 0 4 0;
#X connect 11 0 3 0;
#X connect 12 0 6 0;
#X restore 737 391 pd crash;
#X obj 45 85 route 93 stop;
#N canvas 65 97 450 300 crash 0;
#X obj 189 25 inlet;
#X obj 291 165 noise~;
#X obj 189 47 select 0;
#X obj 241 97 / 127;
#X obj 196 177 vline~;
#X obj 196 221 *~;
#X obj 191 331 outlet~;
#X obj 308 120 print;
#X obj 196 199 pow~ 10;
#X msg 242 140 \$1 0 \, 0 2200 0;
#X msg 175 106 0 2000;
#X obj 194 243 hip~ 2000 10;
#X msg 304 64 127;
#X connect 0 0 2 0;
#X connect 1 0 5 1;
#X connect 2 0 10 0;
#X connect 2 1 3 0;
#X connect 3 0 9 0;
#X connect 4 0 8 0;
#X connect 5 0 11 0;
#X connect 8 0 5 0;
#X connect 9 0 4 0;
#X connect 10 0 4 0;
#X connect 11 0 6 0;
#X connect 12 0 3 0;
#X restore 663 385 pd crash;
#X obj 85 155 route 35 36, f 15;
#X obj 186 183 route 37 38 39 40;
#X obj 302 215 route 41 45;
#X obj 362 257 route 43 50;
#X obj 445 300 route 47 48;
#X obj 665 343 route 49 52 55 57;
#X obj 492 377 drum-tom 30;
#X obj 254 373 drum-tom 25;
#X obj 375 376 drum-tom 35;
#X obj 50 206 bng 15 50 50 0 empty empty empty 17 7 0 10 -262144 -1
-1;
#X obj 152 264 bng 15 50 50 0 empty empty empty 17 7 0 10 -262144 -1
-1;
#X obj 251 286 bng 15 50 50 0 empty empty empty 17 7 0 10 -262144 -1
-1;
#X obj 331 320 bng 15 50 50 0 empty empty empty 17 7 0 10 -262144 -1
-1;
#X obj 414 341 bng 15 50 50 0 empty empty empty 17 7 0 10 -262144 -1
-1;
#X obj 581 367 bng 15 50 50 0 empty empty empty 17 7 0 10 -262144 -1
-1;
#X obj 696 468 bng 15 50 50 0 empty empty empty 17 7 0 10 -262144 -1
-1;
#N canvas 65 85 450 402 tick 0;
#X obj 179 28 inlet;
#X obj 179 50 select 0;
#X obj 231 100 / 127;
#X obj 186 180 vline~;
#X obj 186 202 *~;
#X obj 186 224 *~;
#X obj 181 334 outlet~;
#X obj 298 123 print;
#X msg 276 35 127;
#X msg 177 97 0 20;
#X msg 232 143 \$1 5 \, 0 20 5;
#X obj 281 168 osc~ 440;
#X connect 0 0 1 0;
#X connect 1 0 9 0;
#X connect 1 1 2 0;
#X connect 2 0 10 0;
#X connect 3 0 4 0;
#X connect 3 0 4 1;
#X connect 4 0 5 0;
#X connect 5 0 6 0;
#X connect 8 0 1 0;
#X connect 9 0 3 0;
#X connect 10 0 3 0;
#X connect 11 0 5 1;
#X restore 766 500 pd tick;
#X obj 760 452 bng 15 50 50 0 empty empty empty 17 7 0 10 -262144 -1
-1;
#X obj 545 342 route 42 46;
#N canvas 65 89 450 402 tick 0;
#X obj 179 28 inlet;
#X obj 179 50 select 0;
#X obj 231 100 / 127;
#X obj 186 180 vline~;
#X obj 186 202 *~;
#X obj 186 224 *~;
#X obj 181 334 outlet~;
#X obj 298 123 print;
#X msg 276 35 127;
#X msg 177 97 0 20;
#X msg 232 143 \$1 5 \, 0 20 5;
#X obj 281 168 osc~ 840;
#X connect 0 0 1 0;
#X connect 1 0 9 0;
#X connect 1 1 2 0;
#X connect 2 0 10 0;
#X connect 3 0 4 0;
#X connect 3 0 4 1;
#X connect 4 0 5 0;
#X connect 5 0 6 0;
#X connect 8 0 1 0;
#X connect 9 0 3 0;
#X connect 10 0 3 0;
#X connect 11 0 5 1;
#X restore 804 538 pd tick;
#N canvas 65 89 450 402 tick 0;
#X obj 179 28 inlet;
#X obj 179 50 select 0;
#X obj 231 100 / 127;
#X obj 186 180 vline~;
#X obj 186 202 *~;
#X obj 186 224 *~;
#X obj 181 334 outlet~;
#X obj 298 123 print;
#X msg 276 35 127;
#X msg 177 97 0 20;
#X msg 232 143 \$1 5 \, 0 20 5;
#X obj 281 168 osc~ 1440;
#X connect 0 0 1 0;
#X connect 1 0 9 0;
#X connect 1 1 2 0;
#X connect 2 0 10 0;
#X connect 3 0 4 0;
#X connect 3 0 4 1;
#X connect 4 0 5 0;
#X connect 5 0 6 0;
#X connect 8 0 1 0;
#X connect 9 0 3 0;
#X connect 10 0 3 0;
#X connect 11 0 5 1;
#X restore 870 539 pd tick;
#X obj 814 471 bng 15 50 50 0 empty empty empty 17 7 0 10 -262144 -1
-1;
#X obj 851 482 bng 15 50 50 0 empty empty empty 17 7 0 10 -262144 -1
-1;
#N canvas 65 93 450 402 tick 0;
#X obj 179 28 inlet;
#X obj 179 50 select 0;
#X obj 231 100 / 127;
#X obj 186 180 vline~;
#X obj 186 202 *~;
#X obj 186 224 *~;
#X obj 181 334 outlet~;
#X obj 298 123 print;
#X msg 276 35 127;
#X msg 177 97 0 20;
#X msg 232 143 \$1 5 \, 0 20 5;
#X obj 281 168 osc~ 567;
#X connect 0 0 1 0;
#X connect 1 0 9 0;
#X connect 1 1 2 0;
#X connect 2 0 10 0;
#X connect 3 0 4 0;
#X connect 3 0 4 1;
#X connect 4 0 5 0;
#X connect 5 0 6 0;
#X connect 8 0 1 0;
#X connect 9 0 3 0;
#X connect 10 0 3 0;
#X connect 11 0 5 1;
#X restore 900 559 pd tick;
#X obj 822 432 route 63 65 67 68 70;
#N canvas 65 93 450 402 tick 0;
#X obj 179 28 inlet;
#X obj 179 50 select 0;
#X obj 231 100 / 127;
#X obj 186 180 vline~;
#X obj 186 202 *~;
#X obj 186 224 *~;
#X obj 181 334 outlet~;
#X obj 298 123 print;
#X msg 276 35 127;
#X msg 177 97 0 20;
#X msg 232 143 \$1 5 \, 0 20 5;
#X obj 281 168 osc~ 567;
#X connect 0 0 1 0;
#X connect 1 0 9 0;
#X connect 1 1 2 0;
#X connect 2 0 10 0;
#X connect 3 0 4 0;
#X connect 3 0 4 1;
#X connect 4 0 5 0;
#X connect 5 0 6 0;
#X connect 8 0 1 0;
#X connect 9 0 3 0;
#X connect 10 0 3 0;
#X connect 11 0 5 1;
#X restore 931 589 pd tick;
#N canvas 1045 353 450 392 guiro 0;
#X obj 160 168 *~ 2;
#X obj 160 190 -~ 1;
#X obj 160 234 *~ 1;
#X obj 160 126 phasor~ -14;
#X obj 160 290 lop~ 5000;
#X obj 178 78 vline~;
#X msg 227 35 -14 0 \, -37 100 \, 0 300 100;
#X msg 98 41 -74 0 \, 0 60;
#X obj 95 15 inlet short;
#X obj 226 14 inlet long;
#X obj 163 326 outlet~;
#X obj 158 256 bp~ 4300 47;
#X obj 161 213 *~ 3.5;
#X connect 0 0 1 0;
#X connect 1 0 12 0;
#X connect 2 0 11 0;
#X connect 3 0 0 0;
#X connect 4 0 10 0;
#X connect 5 0 3 0;
#X connect 6 0 5 0;
#X connect 6 0 3 1;
#X connect 7 0 5 0;
#X connect 7 0 3 1;
#X connect 8 0 7 0;
#X connect 9 0 6 0;
#X connect 11 0 4 0;
#X connect 12 0 2 0;
#X restore 1038 627 pd guiro;
#X obj 1038 578 route 73 74;
#X obj 1131 698 bng 15 50 50 0 empty empty empty 17 7 0 10 -262144
-1 -1;
#X floatatom 1106 675 5 0 0 0 - - -, f 5;
#X obj 1052 604 bng 15 50 50 0 empty empty empty 17 7 0 10 -262144
-1 -1;
#X connect 0 0 7 0;
#X connect 2 0 1 0;
#X connect 4 0 1 0;
#X connect 5 0 1 0;
#X connect 6 0 1 0;
#X connect 7 2 9 0;
#X connect 8 0 1 0;
#X connect 9 0 2 0;
#X connect 9 0 18 0;
#X connect 9 1 2 0;
#X connect 9 2 10 0;
#X connect 10 0 4 0;
#X connect 10 0 19 0;
#X connect 10 1 4 0;
#X connect 10 1 19 0;
#X connect 10 2 4 0;
#X connect 10 2 19 0;
#X connect 10 3 4 0;
#X connect 10 3 19 0;
#X connect 10 4 11 0;
#X connect 11 0 16 0;
#X connect 11 0 20 0;
#X connect 11 1 16 0;
#X connect 11 1 20 0;
#X connect 11 2 12 0;
#X connect 12 0 17 0;
#X connect 12 0 21 0;
#X connect 12 1 17 0;
#X connect 12 1 21 0;
#X connect 12 2 13 0;
#X connect 13 0 15 0;
#X connect 13 0 22 0;
#X connect 13 1 15 0;
#X connect 13 1 22 0;
#X connect 13 2 27 0;
#X connect 14 0 8 0;
#X connect 14 0 24 0;
#X connect 14 1 6 0;
#X connect 14 1 24 0;
#X connect 14 2 8 0;
#X connect 14 2 24 0;
#X connect 14 3 6 0;
#X connect 14 3 24 0;
#X connect 14 4 33 0;
#X connect 15 0 1 0;
#X connect 16 0 1 0;
#X connect 17 0 1 0;
#X connect 25 0 1 0;
#X connect 27 0 5 0;
#X connect 27 0 23 0;
#X connect 27 1 5 1;
#X connect 27 1 23 0;
#X connect 27 2 14 0;
#X connect 28 0 1 0;
#X connect 29 0 1 0;
#X connect 32 0 1 0;
#X connect 33 0 25 0;
#X connect 33 0 26 0;
#X connect 33 1 28 0;
#X connect 33 1 30 0;
#X connect 33 2 29 0;
#X connect 33 2 31 0;
#X connect 33 3 32 0;
#X connect 33 4 34 0;
#X connect 33 5 36 0;
#X connect 34 0 1 0;
#X connect 35 0 1 0;
#X connect 36 0 35 0;
#X connect 36 0 39 0;
#X connect 36 1 35 1;
#X connect 36 1 39 0;
#X connect 36 2 38 0;
#X connect 36 2 37 0;
