#N canvas 65 81 945 659 10;
#X obj 54 191 notein;
#X obj 44 239 pack f f f;
#X obj 548 114 pgmin;
#X obj 548 172 pack f f;
#X obj 548 205 s pgmin;
#X obj 32 280 s notein;
#X obj 400 167 ctlin;
#X obj 400 223 pack f f f;
#X obj 400 251 s ctlin;
#X obj 788 119 bendin;
#X obj 680 117 touchin;
#X obj 214 168 polytouchin;
#X obj 214 191 pack f f f;
#X obj 214 213 s polytouchin;
#X obj 680 139 pack f f;
#X obj 680 161 s touchin;
#X obj 788 141 pack f f;
#X obj 788 163 s bendin;
#X connect 0 0 1 0;
#X connect 0 1 1 1;
#X connect 0 2 1 2;
#X connect 1 0 5 0;
#X connect 2 0 3 0;
#X connect 2 1 3 1;
#X connect 3 0 4 0;
#X connect 6 0 7 0;
#X connect 6 1 7 1;
#X connect 6 2 7 2;
#X connect 7 0 8 0;
#X connect 9 0 16 0;
#X connect 9 1 16 1;
#X connect 10 0 14 0;
#X connect 10 1 14 1;
#X connect 11 0 12 0;
#X connect 11 1 12 1;
#X connect 11 2 12 2;
#X connect 12 0 13 0;
#X connect 14 0 15 0;
#X connect 16 0 17 0;
