#N canvas 65 53 1855 1027 10;
#X obj 122 333 bng 15 250 50 0 empty empty empty 17 7 0 10 -262144
-1 -1;
#X obj 690 89 route 0 1 2 3 4 5 6 7 8 9 10 11 12 13 14 15 -1;
#X obj 101 459 outlet;
#X obj 693 54 inlet;
#X obj 101 333 mute;
#X obj 212 333 bng 15 250 50 0 empty empty empty 17 7 0 10 -262144
-1 -1;
#X obj 191 459 outlet;
#X obj 191 333 mute;
#X obj 302 333 bng 15 250 50 0 empty empty empty 17 7 0 10 -262144
-1 -1;
#X obj 281 459 outlet;
#X obj 281 333 mute;
#X obj 392 333 bng 15 250 50 0 empty empty empty 17 7 0 10 -262144
-1 -1;
#X obj 371 459 outlet;
#X obj 371 333 mute;
#X obj 482 333 bng 15 250 50 0 empty empty empty 17 7 0 10 -262144
-1 -1;
#X obj 461 459 outlet;
#X obj 461 333 mute;
#X obj 572 333 bng 15 250 50 0 empty empty empty 17 7 0 10 -262144
-1 -1;
#X obj 551 459 outlet;
#X obj 551 333 mute;
#X obj 662 333 bng 15 250 50 0 empty empty empty 17 7 0 10 -262144
-1 -1;
#X obj 641 459 outlet;
#X obj 641 333 mute;
#X obj 752 333 bng 15 250 50 0 empty empty empty 17 7 0 10 -262144
-1 -1;
#X obj 731 459 outlet;
#X obj 731 333 mute;
#X obj 842 333 bng 15 250 50 0 empty empty empty 17 7 0 10 -262144
-1 -1;
#X obj 821 459 outlet;
#X obj 821 333 mute;
#X obj 932 333 bng 15 250 50 0 empty empty empty 17 7 0 10 -262144
-1 -1;
#X obj 911 459 outlet;
#X obj 911 333 mute;
#X obj 1022 333 bng 15 250 50 0 empty empty empty 17 7 0 10 -262144
-1 -1;
#X obj 1001 459 outlet;
#X obj 1001 333 mute;
#X obj 1112 333 bng 15 250 50 0 empty empty empty 17 7 0 10 -262144
-1 -1;
#X obj 1091 459 outlet;
#X obj 1091 333 mute;
#X obj 1202 333 bng 15 250 50 0 empty empty empty 17 7 0 10 -262144
-1 -1;
#X obj 1181 459 outlet;
#X obj 1181 333 mute;
#X obj 1292 333 bng 15 250 50 0 empty empty empty 17 7 0 10 -262144
-1 -1;
#X obj 1271 459 outlet;
#X obj 1271 333 mute;
#X obj 1382 333 bng 15 250 50 0 empty empty empty 17 7 0 10 -262144
-1 -1;
#X obj 1361 459 outlet;
#X obj 1361 333 mute;
#X obj 1472 333 bng 15 250 50 0 empty empty empty 17 7 0 10 -262144
-1 -1;
#X obj 1451 459 outlet;
#X obj 1451 333 mute;
#X obj 1562 333 bng 15 250 50 0 empty empty empty 17 7 0 10 -262144
-1 -1;
#X obj 1541 459 outlet;
#X obj 1541 333 mute;
#X obj 1606 480 outlet;
#X text 370 302 guitar;
#X text 464 303 bass;
#X text 100 304 piano;
#X text 189 302 croma;
#X text 277 303 organ;
#X text 731 304 brass;
#X text 1166 303 synth-fx;
#X text 1268 304 world;
#X text 1346 303 percussion;
#X text 1526 303 drumset;
#X obj 1606 313 tgl 20 0 empty empty empty 17 7 0 10 -262144 -1 -1
0 1;
#X obj 1606 339 bng 20 250 50 0 empty empty empty 17 7 0 10 -262144
-1 -1;
#X msg 1606 364 stop;
#X text 110 50 https://www.midi.org/specifications/item/gm-level-1-sound-set
, f 65;
#X text 547 304 strings;
#X text 638 304 ensemble;
#X text 823 304 reed;
#X text 909 304 pipe;
#X text 985 303 synth-lead;
#X text 1076 303 synth-pad;
#X text 1443 304 sound-fx;
#X obj 1606 442 t a;
#X obj 117 226 t a;
#X obj 210 227 t a;
#X obj 298 226 t a;
#X obj 387 226 t a;
#X obj 477 226 t a;
#X obj 567 226 t a;
#X obj 657 226 t a;
#X obj 747 226 t a;
#X obj 837 226 t a;
#X obj 927 226 t a;
#X obj 1017 226 t a;
#X obj 1107 226 t a;
#X obj 1198 226 t a;
#X obj 1287 226 t a;
#X obj 1378 226 t a;
#X obj 1467 226 t a;
#X obj 1557 226 t a;
#X connect 1 0 76 0;
#X connect 1 1 77 0;
#X connect 1 2 78 0;
#X connect 1 3 79 0;
#X connect 1 4 80 0;
#X connect 1 5 81 0;
#X connect 1 6 82 0;
#X connect 1 7 83 0;
#X connect 1 8 84 0;
#X connect 1 9 85 0;
#X connect 1 10 86 0;
#X connect 1 11 87 0;
#X connect 1 12 88 0;
#X connect 1 13 89 0;
#X connect 1 14 90 0;
#X connect 1 15 91 0;
#X connect 1 16 92 0;
#X connect 3 0 1 0;
#X connect 4 0 2 0;
#X connect 7 0 6 0;
#X connect 10 0 9 0;
#X connect 13 0 12 0;
#X connect 16 0 15 0;
#X connect 19 0 18 0;
#X connect 22 0 21 0;
#X connect 25 0 24 0;
#X connect 28 0 27 0;
#X connect 31 0 30 0;
#X connect 34 0 33 0;
#X connect 37 0 36 0;
#X connect 40 0 39 0;
#X connect 43 0 42 0;
#X connect 46 0 45 0;
#X connect 49 0 48 0;
#X connect 52 0 51 0;
#X connect 64 0 4 1;
#X connect 64 0 7 1;
#X connect 64 0 10 1;
#X connect 64 0 13 1;
#X connect 64 0 16 1;
#X connect 64 0 19 1;
#X connect 64 0 22 1;
#X connect 64 0 25 1;
#X connect 64 0 28 1;
#X connect 64 0 31 1;
#X connect 64 0 34 1;
#X connect 64 0 37 1;
#X connect 64 0 40 1;
#X connect 64 0 43 1;
#X connect 64 0 46 1;
#X connect 64 0 49 1;
#X connect 64 0 52 1;
#X connect 64 0 65 0;
#X connect 65 0 66 0;
#X connect 65 0 53 0;
#X connect 66 0 75 0;
#X connect 75 0 51 0;
#X connect 75 0 48 0;
#X connect 75 0 45 0;
#X connect 75 0 42 0;
#X connect 75 0 39 0;
#X connect 75 0 36 0;
#X connect 75 0 33 0;
#X connect 75 0 30 0;
#X connect 75 0 27 0;
#X connect 75 0 24 0;
#X connect 75 0 21 0;
#X connect 75 0 18 0;
#X connect 75 0 15 0;
#X connect 75 0 12 0;
#X connect 75 0 9 0;
#X connect 75 0 6 0;
#X connect 75 0 2 0;
#X connect 76 0 4 0;
#X connect 76 0 0 0;
#X connect 77 0 7 0;
#X connect 77 0 5 0;
#X connect 78 0 10 0;
#X connect 78 0 8 0;
#X connect 79 0 13 0;
#X connect 79 0 11 0;
#X connect 80 0 16 0;
#X connect 80 0 14 0;
#X connect 81 0 19 0;
#X connect 81 0 17 0;
#X connect 82 0 22 0;
#X connect 82 0 20 0;
#X connect 83 0 25 0;
#X connect 83 0 23 0;
#X connect 84 0 28 0;
#X connect 84 0 26 0;
#X connect 85 0 31 0;
#X connect 85 0 29 0;
#X connect 86 0 34 0;
#X connect 86 0 32 0;
#X connect 87 0 37 0;
#X connect 87 0 35 0;
#X connect 88 0 40 0;
#X connect 88 0 38 0;
#X connect 89 0 43 0;
#X connect 89 0 41 0;
#X connect 90 0 46 0;
#X connect 90 0 44 0;
#X connect 91 0 49 0;
#X connect 91 0 47 0;
#X connect 92 0 52 0;
#X connect 92 0 50 0;
#X coords 0 -1 1 1 1540 60 2 100 300;
