#N canvas 65 53 1855 1027 10;
#X obj 130 31 midi-pgm;
#X obj 179 704 route 1 2 3 4 5 6 7 8 9 10 11 12 13 14 15 16;
#X obj 892 149 symbol piano;
#X obj 890 193 symbol organ;
#X obj 890 216 symbol guitar;
#X obj 892 171 symbol chroma;
#X obj 890 237 symbol bass;
#X obj 888 259 symbol cords;
#X obj 889 280 symbol pad;
#X obj 890 303 symbol brass;
#X obj 891 325 symbol wood;
#X obj 892 347 symbol flute;
#X obj 893 372 symbol synth-solo;
#X obj 894 396 symbol synth-set;
#X obj 895 420 symbol synth-fx;
#X obj 897 443 symbol world;
#X obj 898 464 symbol percussion;
#X obj 899 487 symbol sounds;
#X obj 891 533 bang;
#X obj 891 553 symbol ???;
#X obj 308 318 bng 15 250 50 0 empty empty empty 17 7 0 10 -262144
-1 -1;
#X text 347 319 reset;
#X obj 1002 149 bng 15 250 50 0 empty empty empty 17 7 0 10 -262144
-1 -1;
#X obj 1003 169 bng 15 250 50 0 empty empty empty 17 7 0 10 -262144
-1 -1;
#X obj 1002 189 bng 15 250 50 0 empty empty empty 17 7 0 10 -262144
-1 -1;
#X obj 1001 217 bng 15 250 50 0 empty empty empty 17 7 0 10 -262144
-1 -1;
#X obj 1001 239 bng 15 250 50 0 empty empty empty 17 7 0 10 -262144
-1 -1;
#X obj 1000 259 bng 15 250 50 0 empty empty empty 17 7 0 10 -262144
-1 -1;
#X obj 999 276 bng 15 250 50 0 empty empty empty 17 7 0 10 -262144
-1 -1;
#X obj 999 303 bng 15 250 50 0 empty empty empty 17 7 0 10 -262144
-1 -1;
#X obj 1000 322 bng 15 250 50 0 empty empty empty 17 7 0 10 -262144
-1 -1;
#X obj 999 343 bng 15 250 50 0 empty empty empty 17 7 0 10 -262144
-1 -1;
#X obj 1025 371 bng 15 250 50 0 empty empty empty 17 7 0 10 -262144
-1 -1;
#X obj 1024 394 bng 15 250 50 0 empty empty empty 17 7 0 10 -262144
-1 -1;
#X obj 1019 415 bng 15 250 50 0 empty empty empty 17 7 0 10 -262144
-1 -1;
#X obj 1003 441 bng 15 250 50 0 empty empty empty 17 7 0 10 -262144
-1 -1;
#X obj 1033 463 bng 15 250 50 0 empty empty empty 17 7 0 10 -262144
-1 -1;
#X obj 998 488 bng 15 250 50 0 empty empty empty 17 7 0 10 -262144
-1 -1;
#X obj 1008 512 bng 15 250 50 0 empty empty empty 17 7 0 10 -262144
-1 -1;
#X obj 1141 93 route 0 1 2 3 4 5 6 7 8 9 10 11 12 13 14 15 -1;
#X obj 898 510 symbol drumset;
#X obj 977 553 bng 15 250 50 0 empty empty empty 17 7 0 10 -262144
-1 -1;
#X obj 514 98 select 0 1 2 3 4 5 6 7 8 9 10 11 12 13 14 15 -1;
#X obj 205 836 bng 15 250 50 0 empty empty empty 17 7 0 10 -262144
-1 -1;
#X obj 290 836 bng 15 250 50 0 empty empty empty 17 7 0 10 -262144
-1 -1;
#X obj 374 838 bng 15 250 50 0 empty empty empty 17 7 0 10 -262144
-1 -1;
#X obj 459 840 bng 15 250 50 0 empty empty empty 17 7 0 10 -262144
-1 -1;
#X obj 541 840 bng 15 250 50 0 empty empty empty 17 7 0 10 -262144
-1 -1;
#X obj 620 840 bng 15 250 50 0 empty empty empty 17 7 0 10 -262144
-1 -1;
#X obj 708 842 bng 15 250 50 0 empty empty empty 17 7 0 10 -262144
-1 -1;
#X obj 782 842 bng 15 250 50 0 empty empty empty 17 7 0 10 -262144
-1 -1;
#X obj 877 843 bng 15 250 50 0 empty empty empty 17 7 0 10 -262144
-1 -1;
#X obj 968 841 bng 15 250 50 0 empty empty empty 17 7 0 10 -262144
-1 -1;
#X obj 1047 840 bng 15 250 50 0 empty empty empty 17 7 0 10 -262144
-1 -1;
#X obj 1134 841 bng 15 250 50 0 empty empty empty 17 7 0 10 -262144
-1 -1;
#X obj 1215 840 bng 15 250 50 0 empty empty empty 17 7 0 10 -262144
-1 -1;
#X obj 1297 839 bng 15 250 50 0 empty empty empty 17 7 0 10 -262144
-1 -1;
#X obj 1384 844 bng 15 250 50 0 empty empty empty 17 7 0 10 -262144
-1 -1;
#X obj 1465 844 bng 15 250 50 0 empty empty empty 17 7 0 10 -262144
-1 -1;
#X obj 161 909 route 1 2 3 4 5 6 7 8 9 10 11 12 13 14 15 16;
#X obj 81 831 r notein;
#X obj 80 868 unpack f f f;
#X obj 179 412 unpack f f f;
#X symbolatom 179 799 10 0 0 0 - - -, f 10;
#X obj 179 758 unpack s f;
#X obj 179 672 pack f s f;
#X floatatom 215 781 5 0 0 0 - - -, f 5;
#X msg 50 684 set \$1 \$2;
#X msg 50 706 30 0;
#X symbolatom 258 799 10 0 0 0 - - -, f 10;
#X obj 258 758 unpack s f;
#X floatatom 294 781 5 0 0 0 - - -, f 5;
#X symbolatom 348 800 10 0 0 0 - - -, f 10;
#X obj 348 759 unpack s f;
#X floatatom 384 782 5 0 0 0 - - -, f 5;
#X symbolatom 427 800 10 0 0 0 - - -, f 10;
#X obj 427 759 unpack s f;
#X floatatom 463 782 5 0 0 0 - - -, f 5;
#X symbolatom 509 801 10 0 0 0 - - -, f 10;
#X obj 509 760 unpack s f;
#X floatatom 545 783 5 0 0 0 - - -, f 5;
#X symbolatom 588 801 10 0 0 0 - - -, f 10;
#X obj 588 760 unpack s f;
#X floatatom 624 783 5 0 0 0 - - -, f 5;
#X symbolatom 678 802 10 0 0 0 - - -, f 10;
#X obj 678 761 unpack s f;
#X floatatom 714 784 5 0 0 0 - - -, f 5;
#X symbolatom 757 802 10 0 0 0 - - -, f 10;
#X obj 757 761 unpack s f;
#X floatatom 793 784 5 0 0 0 - - -, f 5;
#X symbolatom 848 803 10 0 0 0 - - -, f 10;
#X obj 848 762 unpack s f;
#X floatatom 884 785 5 0 0 0 - - -, f 5;
#X symbolatom 927 803 10 0 0 0 - - -, f 10;
#X obj 927 762 unpack s f;
#X floatatom 963 785 5 0 0 0 - - -, f 5;
#X symbolatom 1017 804 10 0 0 0 - - -, f 10;
#X obj 1017 763 unpack s f;
#X floatatom 1053 786 5 0 0 0 - - -, f 5;
#X symbolatom 1096 804 10 0 0 0 - - -, f 10;
#X obj 1096 763 unpack s f;
#X floatatom 1132 786 5 0 0 0 - - -, f 5;
#X symbolatom 1178 805 10 0 0 0 - - -, f 10;
#X obj 1178 764 unpack s f;
#X floatatom 1214 787 5 0 0 0 - - -, f 5;
#X symbolatom 1257 805 10 0 0 0 - - -, f 10;
#X obj 1257 764 unpack s f;
#X floatatom 1293 787 5 0 0 0 - - -, f 5;
#X symbolatom 1347 806 10 0 0 0 - - -, f 10;
#X obj 1347 765 unpack s f;
#X floatatom 1383 788 5 0 0 0 - - -, f 5;
#X symbolatom 1426 806 10 0 0 0 - - -, f 10;
#X obj 1426 765 unpack s f;
#X floatatom 1462 788 5 0 0 0 - - -, f 5;
#X msg 308 366 \$1 -2 -1;
#X obj 308 344 loop 1 16;
#X connect 0 0 39 0;
#X connect 0 1 62 0;
#X connect 1 0 64 0;
#X connect 1 0 67 0;
#X connect 1 1 70 0;
#X connect 1 2 73 0;
#X connect 1 3 76 0;
#X connect 1 4 79 0;
#X connect 1 5 82 0;
#X connect 1 6 85 0;
#X connect 1 7 88 0;
#X connect 1 8 91 0;
#X connect 1 9 94 0;
#X connect 1 10 97 0;
#X connect 1 11 100 0;
#X connect 1 12 103 0;
#X connect 1 13 106 0;
#X connect 1 14 109 0;
#X connect 1 15 112 0;
#X connect 2 0 65 1;
#X connect 3 0 65 1;
#X connect 4 0 65 1;
#X connect 5 0 65 1;
#X connect 6 0 65 1;
#X connect 7 0 65 1;
#X connect 8 0 65 1;
#X connect 9 0 65 1;
#X connect 10 0 65 1;
#X connect 11 0 65 1;
#X connect 12 0 65 1;
#X connect 13 0 65 1;
#X connect 14 0 65 1;
#X connect 15 0 65 1;
#X connect 16 0 65 1;
#X connect 17 0 65 1;
#X connect 18 0 19 0;
#X connect 19 0 65 1;
#X connect 20 0 115 0;
#X connect 39 0 22 0;
#X connect 39 1 23 0;
#X connect 39 2 24 0;
#X connect 39 3 25 0;
#X connect 39 4 26 0;
#X connect 39 5 27 0;
#X connect 39 6 28 0;
#X connect 39 7 29 0;
#X connect 39 8 30 0;
#X connect 39 9 31 0;
#X connect 39 10 32 0;
#X connect 39 11 33 0;
#X connect 39 12 34 0;
#X connect 39 13 35 0;
#X connect 39 14 36 0;
#X connect 39 15 37 0;
#X connect 39 16 38 0;
#X connect 39 17 41 0;
#X connect 40 0 65 1;
#X connect 42 0 2 0;
#X connect 42 1 5 0;
#X connect 42 2 3 0;
#X connect 42 3 4 0;
#X connect 42 4 6 0;
#X connect 42 5 7 0;
#X connect 42 6 8 0;
#X connect 42 7 9 0;
#X connect 42 8 10 0;
#X connect 42 9 11 0;
#X connect 42 10 12 0;
#X connect 42 11 13 0;
#X connect 42 12 14 0;
#X connect 42 13 15 0;
#X connect 42 14 16 0;
#X connect 42 15 17 0;
#X connect 42 16 40 0;
#X connect 42 17 18 0;
#X connect 59 0 43 0;
#X connect 59 1 44 0;
#X connect 59 2 45 0;
#X connect 59 3 46 0;
#X connect 59 4 47 0;
#X connect 59 5 48 0;
#X connect 59 6 49 0;
#X connect 59 7 50 0;
#X connect 59 8 51 0;
#X connect 59 9 52 0;
#X connect 59 10 53 0;
#X connect 59 11 54 0;
#X connect 59 12 55 0;
#X connect 59 13 56 0;
#X connect 59 14 57 0;
#X connect 59 15 58 0;
#X connect 60 0 61 0;
#X connect 61 2 59 0;
#X connect 62 0 65 0;
#X connect 62 1 42 0;
#X connect 62 2 65 2;
#X connect 64 0 63 0;
#X connect 64 1 66 0;
#X connect 65 0 1 0;
#X connect 67 0 68 0;
#X connect 70 0 69 0;
#X connect 70 1 71 0;
#X connect 73 0 72 0;
#X connect 73 1 74 0;
#X connect 76 0 75 0;
#X connect 76 1 77 0;
#X connect 79 0 78 0;
#X connect 79 1 80 0;
#X connect 82 0 81 0;
#X connect 82 1 83 0;
#X connect 85 0 84 0;
#X connect 85 1 86 0;
#X connect 88 0 87 0;
#X connect 88 1 89 0;
#X connect 91 0 90 0;
#X connect 91 1 92 0;
#X connect 94 0 93 0;
#X connect 94 1 95 0;
#X connect 97 0 96 0;
#X connect 97 1 98 0;
#X connect 100 0 99 0;
#X connect 100 1 101 0;
#X connect 103 0 102 0;
#X connect 103 1 104 0;
#X connect 106 0 105 0;
#X connect 106 1 107 0;
#X connect 109 0 108 0;
#X connect 109 1 110 0;
#X connect 112 0 111 0;
#X connect 112 1 113 0;
#X connect 114 0 62 0;
#X connect 115 0 114 0;
