#N canvas 65 53 1855 1027 10;
#X obj 122 333 bng 15 250 50 0 empty empty empty 17 7 0 10 -262144
-1 -1;
#X obj 690 89 route 0 1 2 3 4 5 6 7 8 9 10 11 12 13 14 15 -1;
#X obj 101 459 outlet;
#X obj 693 54 inlet;
#X obj 101 333 mute;
#X obj 117 226 t l;
#X obj 212 333 bng 15 250 50 0 empty empty empty 17 7 0 10 -262144
-1 -1;
#X obj 191 459 outlet;
#X obj 191 333 mute;
#X obj 207 226 t l;
#X obj 302 333 bng 15 250 50 0 empty empty empty 17 7 0 10 -262144
-1 -1;
#X obj 281 459 outlet;
#X obj 281 333 mute;
#X obj 297 226 t l;
#X obj 392 333 bng 15 250 50 0 empty empty empty 17 7 0 10 -262144
-1 -1;
#X obj 371 459 outlet;
#X obj 371 333 mute;
#X obj 387 226 t l;
#X obj 482 333 bng 15 250 50 0 empty empty empty 17 7 0 10 -262144
-1 -1;
#X obj 461 459 outlet;
#X obj 461 333 mute;
#X obj 477 226 t l;
#X obj 572 333 bng 15 250 50 0 empty empty empty 17 7 0 10 -262144
-1 -1;
#X obj 551 459 outlet;
#X obj 551 333 mute;
#X obj 567 226 t l;
#X obj 662 333 bng 15 250 50 0 empty empty empty 17 7 0 10 -262144
-1 -1;
#X obj 641 459 outlet;
#X obj 641 333 mute;
#X obj 657 226 t l;
#X obj 752 333 bng 15 250 50 0 empty empty empty 17 7 0 10 -262144
-1 -1;
#X obj 731 459 outlet;
#X obj 731 333 mute;
#X obj 747 226 t l;
#X obj 842 333 bng 15 250 50 0 empty empty empty 17 7 0 10 -262144
-1 -1;
#X obj 821 459 outlet;
#X obj 821 333 mute;
#X obj 837 226 t l;
#X obj 932 333 bng 15 250 50 0 empty empty empty 17 7 0 10 -262144
-1 -1;
#X obj 911 459 outlet;
#X obj 911 333 mute;
#X obj 927 226 t l;
#X obj 1022 333 bng 15 250 50 0 empty empty empty 17 7 0 10 -262144
-1 -1;
#X obj 1001 459 outlet;
#X obj 1001 333 mute;
#X obj 1017 226 t l;
#X obj 1112 333 bng 15 250 50 0 empty empty empty 17 7 0 10 -262144
-1 -1;
#X obj 1091 459 outlet;
#X obj 1091 333 mute;
#X obj 1107 226 t l;
#X obj 1202 333 bng 15 250 50 0 empty empty empty 17 7 0 10 -262144
-1 -1;
#X obj 1181 459 outlet;
#X obj 1181 333 mute;
#X obj 1197 226 t l;
#X obj 1292 333 bng 15 250 50 0 empty empty empty 17 7 0 10 -262144
-1 -1;
#X obj 1271 459 outlet;
#X obj 1271 333 mute;
#X obj 1287 226 t l;
#X obj 1382 333 bng 15 250 50 0 empty empty empty 17 7 0 10 -262144
-1 -1;
#X obj 1361 459 outlet;
#X obj 1361 333 mute;
#X obj 1377 226 t l;
#X obj 1472 333 bng 15 250 50 0 empty empty empty 17 7 0 10 -262144
-1 -1;
#X obj 1451 459 outlet;
#X obj 1451 333 mute;
#X obj 1467 226 t l;
#X obj 1562 333 bng 15 250 50 0 empty empty empty 17 7 0 10 -262144
-1 -1;
#X obj 1541 459 outlet;
#X obj 1541 333 mute;
#X obj 1557 226 t l;
#X obj 1606 480 outlet;
#X text 370 302 guitar;
#X text 464 303 bass;
#X text 100 304 piano;
#X text 189 302 croma;
#X text 277 303 organ;
#X text 547 304 chords;
#X text 648 304 pad;
#X text 731 304 brass;
#X text 823 304 wood;
#X text 909 304 flute;
#X text 986 303 synth-solo;
#X text 1076 303 synth-set;
#X text 1166 303 synth-fx;
#X text 1268 304 world;
#X text 1346 303 percussion;
#X text 1443 304 sounds;
#X text 1526 303 drumset;
#X obj 1606 313 tgl 20 0 empty empty empty 17 7 0 10 -262144 -1 -1
1 1;
#X obj 1606 339 bng 20 250 50 0 empty empty empty 17 7 0 10 -262144
-1 -1;
#X msg 1606 364 stop;
#X obj 1606 442 t a;
#X connect 1 0 5 0;
#X connect 1 1 9 0;
#X connect 1 2 13 0;
#X connect 1 3 17 0;
#X connect 1 4 21 0;
#X connect 1 5 25 0;
#X connect 1 6 29 0;
#X connect 1 7 33 0;
#X connect 1 8 37 0;
#X connect 1 9 41 0;
#X connect 1 10 45 0;
#X connect 1 11 49 0;
#X connect 1 12 53 0;
#X connect 1 13 57 0;
#X connect 1 14 61 0;
#X connect 1 15 65 0;
#X connect 1 16 69 0;
#X connect 3 0 1 0;
#X connect 4 0 2 0;
#X connect 5 0 4 0;
#X connect 5 0 0 0;
#X connect 8 0 7 0;
#X connect 9 0 8 0;
#X connect 9 0 6 0;
#X connect 12 0 11 0;
#X connect 13 0 12 0;
#X connect 13 0 10 0;
#X connect 16 0 15 0;
#X connect 17 0 16 0;
#X connect 17 0 14 0;
#X connect 20 0 19 0;
#X connect 21 0 20 0;
#X connect 21 0 18 0;
#X connect 24 0 23 0;
#X connect 25 0 24 0;
#X connect 25 0 22 0;
#X connect 28 0 27 0;
#X connect 29 0 28 0;
#X connect 29 0 26 0;
#X connect 32 0 31 0;
#X connect 33 0 32 0;
#X connect 33 0 30 0;
#X connect 36 0 35 0;
#X connect 37 0 36 0;
#X connect 37 0 34 0;
#X connect 40 0 39 0;
#X connect 41 0 40 0;
#X connect 41 0 38 0;
#X connect 44 0 43 0;
#X connect 45 0 44 0;
#X connect 45 0 42 0;
#X connect 48 0 47 0;
#X connect 49 0 48 0;
#X connect 49 0 46 0;
#X connect 52 0 51 0;
#X connect 53 0 52 0;
#X connect 53 0 50 0;
#X connect 56 0 55 0;
#X connect 57 0 56 0;
#X connect 57 0 54 0;
#X connect 60 0 59 0;
#X connect 61 0 60 0;
#X connect 61 0 58 0;
#X connect 64 0 63 0;
#X connect 65 0 64 0;
#X connect 65 0 62 0;
#X connect 68 0 67 0;
#X connect 69 0 68 0;
#X connect 69 0 66 0;
#X connect 88 0 4 1;
#X connect 88 0 8 1;
#X connect 88 0 12 1;
#X connect 88 0 16 1;
#X connect 88 0 20 1;
#X connect 88 0 24 1;
#X connect 88 0 28 1;
#X connect 88 0 32 1;
#X connect 88 0 36 1;
#X connect 88 0 40 1;
#X connect 88 0 44 1;
#X connect 88 0 48 1;
#X connect 88 0 52 1;
#X connect 88 0 56 1;
#X connect 88 0 60 1;
#X connect 88 0 64 1;
#X connect 88 0 68 1;
#X connect 88 0 89 0;
#X connect 89 0 90 0;
#X connect 89 0 70 0;
#X connect 90 0 91 0;
#X connect 91 0 67 0;
#X connect 91 0 63 0;
#X connect 91 0 59 0;
#X connect 91 0 55 0;
#X connect 91 0 51 0;
#X connect 91 0 47 0;
#X connect 91 0 43 0;
#X connect 91 0 39 0;
#X connect 91 0 35 0;
#X connect 91 0 31 0;
#X connect 91 0 27 0;
#X connect 91 0 23 0;
#X connect 91 0 19 0;
#X connect 91 0 15 0;
#X connect 91 0 11 0;
#X connect 91 0 7 0;
#X coords 0 -1 1 1 1540 60 2 100 300;
