#N canvas 390 351 1316 649 10;
#X obj 421 269 tabwrite pgm;
#X obj 299 111 swap;
#X obj 286 141 pack f f;
#X text 387 93 swap to have channel \, program;
#X obj 286 163 route 10;
#X msg 286 187 -1;
#X obj 339 187 unpack f f;
#X obj 394 219 >> 3;
#X obj 166 176 tabread pgm;
#N canvas 65 81 450 250 (subpatch) 0;
#X array pgm 17 float 2;
#X coords 1 15 16 -1 100 100 1 0 0;
#X restore 579 181 graph;
#X obj 87 522 outlet;
#X obj 327 399 outlet;
#X obj 368 292 swap;
#X obj 366 245 f;
#N canvas 0 50 450 250 (subpatch) 0;
#X array cc 2048 float 2;
#X coords 0 127 2048 0 200 140 1 0 0;
#X restore 747 166 graph;
#X obj 1044 330 pack f f f;
#X obj 1044 259 swap;
#X obj 1044 386 route 10;
#X obj 1044 408 route 7 10;
#X msg 1077 466 pan;
#X msg 1013 466 volume;
#X obj 1185 287 tabwrite cc;
#X obj 1224 171 << 7;
#X obj 1201 214 |;
#X obj 1169 186 swap;
#X obj 54 262 swap;
#X text 23 28 unpack as [pitch \, velocity \, channel];
#X obj 87 452 pack f f f;
#X text 28 547 pack as [instrument \, pitch \, velocity] for easy routing.
, f 66;
#X text 915 504 http://www.indiana.edu/~emusic/cntrlnumb.html;
#X obj 95 63 r notein;
#X obj 97 100 unpack f f f;
#X obj 328 41 r pgmin;
#X obj 328 74 unpack f f;
#X obj 324 371 pack f f f;
#X obj 426 196 t f f;
#X obj 513 312 r ctlin;
#X obj 513 411 route 123;
#X obj 513 457 tabread pgm;
#X msg 513 483 \$1 stop;
#X obj 513 505 t a;
#X obj 1138 58 r ctlin;
#X obj 1138 93 unpack f f f;
#X obj 513 335 unpack f f f;
#X obj 513 359 swap;
#X text 600 365 convert vel \, note \, chan => note \, vel \, chan
;
#X obj 513 384 pack f f f;
#X obj 513 433 route 0;
#X text 588 423 Special All notes OFF message cc 123 vv 0;
#X connect 1 0 2 0;
#X connect 1 1 2 1;
#X connect 2 0 4 0;
#X connect 4 0 5 0;
#X connect 4 1 6 0;
#X connect 5 0 13 0;
#X connect 5 0 34 2;
#X connect 6 1 35 0;
#X connect 7 0 13 0;
#X connect 8 0 25 1;
#X connect 12 0 34 0;
#X connect 12 1 34 1;
#X connect 13 0 0 0;
#X connect 13 0 12 0;
#X connect 15 0 17 0;
#X connect 16 0 15 0;
#X connect 16 1 15 1;
#X connect 17 0 18 0;
#X connect 18 0 20 0;
#X connect 18 1 19 0;
#X connect 22 0 23 1;
#X connect 23 0 21 1;
#X connect 24 0 21 0;
#X connect 24 1 23 0;
#X connect 25 0 27 0;
#X connect 25 1 27 1;
#X connect 27 0 10 0;
#X connect 30 0 31 0;
#X connect 31 0 25 0;
#X connect 31 1 27 2;
#X connect 31 2 8 0;
#X connect 32 0 33 0;
#X connect 33 0 1 0;
#X connect 33 1 1 1;
#X connect 33 1 0 1;
#X connect 33 1 12 1;
#X connect 34 0 11 0;
#X connect 35 0 7 0;
#X connect 35 1 34 2;
#X connect 36 0 43 0;
#X connect 37 0 47 0;
#X connect 38 0 39 0;
#X connect 39 0 40 0;
#X connect 40 0 10 0;
#X connect 41 0 42 0;
#X connect 42 0 16 0;
#X connect 42 0 24 0;
#X connect 42 1 15 2;
#X connect 42 1 24 1;
#X connect 42 2 16 1;
#X connect 42 2 22 0;
#X connect 43 0 44 0;
#X connect 43 1 44 1;
#X connect 43 2 46 2;
#X connect 44 0 46 0;
#X connect 44 1 46 1;
#X connect 46 0 37 0;
#X connect 47 0 38 0;
