#N canvas 65 89 450 300 10;
#X obj 144 24 inlet;
#X obj 110 217 outlet;
#X obj 186 193 outlet;
#X obj 110 144 swap 1;
#X obj 110 166 -;
#X connect 0 0 3 0;
#X connect 0 0 2 0;
#X connect 3 0 4 0;
#X connect 3 1 4 1;
#X connect 4 0 1 0;
