#N canvas 938 217 450 792 10;
#X obj 171 73 inlet;
#X obj 171 95 unpack f f;
#X obj 222 229 mtof;
#X obj 93 313 vline~;
#X obj 93 335 *~;
#X obj 94 424 *~;
#X obj 55 732 outlet~;
#X obj 88 117 select 0;
#X msg 73 50 70 127;
#X msg 67 83 70 0;
#X obj 92 485 +~ 0.25;
#X obj 227 323 osc~;
#X msg 57 244 0 100;
#X obj 215 372 *~ 1;
#X obj 122 221 * 1.2;
#X obj 130 268 pack f f;
#X obj 138 180 t f f;
#X obj 72 654 clip~ -1 1;
#X obj 182 438 * 1;
#X msg 97 288 \$1 5 \, \$2 40 5;
#X obj 170 221 * 0.5;
#X obj 141 138 / 127;
#X obj 95 520 cos~;
#X obj 277 324 osc~;
#X obj 278 274 * 1;
#X obj 215 456 osc~ 0.4;
#X obj 162 559 vcf~ 1;
#X obj 214 503 +~ 400;
#X obj 31 384 *~ 500;
#X obj 215 479 *~ 150;
#X obj 31 406 +~ 700;
#X obj 78 620 *~ 12;
#X obj 111 451 *~ 7.2;
#X obj 69 693 *~ 0.7;
#X obj 228 273 * 2;
#X obj 25 558 vcf~ 2;
#X connect 0 0 1 0;
#X connect 1 0 2 0;
#X connect 1 1 7 0;
#X connect 2 0 18 0;
#X connect 2 0 24 0;
#X connect 2 0 34 0;
#X connect 3 0 4 0;
#X connect 3 0 4 1;
#X connect 4 0 5 0;
#X connect 4 0 28 0;
#X connect 5 0 32 0;
#X connect 7 0 12 0;
#X connect 7 1 21 0;
#X connect 8 0 1 0;
#X connect 9 0 1 0;
#X connect 10 0 22 0;
#X connect 11 0 13 0;
#X connect 12 0 3 0;
#X connect 13 0 5 1;
#X connect 14 0 15 0;
#X connect 15 0 19 0;
#X connect 16 0 14 0;
#X connect 16 1 20 0;
#X connect 17 0 33 0;
#X connect 19 0 3 0;
#X connect 20 0 15 1;
#X connect 21 0 16 0;
#X connect 22 0 26 0;
#X connect 22 0 35 0;
#X connect 23 0 13 0;
#X connect 24 0 23 0;
#X connect 24 0 23 1;
#X connect 25 0 29 0;
#X connect 26 1 31 0;
#X connect 27 0 26 1;
#X connect 28 0 30 0;
#X connect 29 0 27 0;
#X connect 30 0 35 1;
#X connect 31 0 17 0;
#X connect 32 0 10 0;
#X connect 33 0 6 0;
#X connect 34 0 11 0;
#X connect 34 0 11 1;
#X connect 35 1 31 0;
