#N canvas 372 444 450 481 10;
#X obj 160 23 inlet;
#X obj 207 432 outlet~;
#X obj 160 66 unpack f f;
#X obj 227 96 / 127;
#X obj 299 186 mtof;
#X obj 98 158 osc~;
#X obj 227 140 vline~;
#X obj 288 69 select 0;
#X obj 207 379 *~;
#X msg 300 144 0 50;
#X obj 227 118 \$1 2;
#X obj 186 241 +~ 0;
#X obj 162 326 clip~ -1 1;
#X obj 186 197 osc~ 4;
#X obj 38 109 +~ 1;
#X obj 39 131 *~ 0.5;
#X obj 65 263 *~;
#X obj 170 353 lop~ 1000;
#X obj 122 125 mtof;
#X obj 99 229 cos~;
#X obj 186 219 *~ 10;
#X obj 39 153 *~ 0.9;
#X obj 39 175 +~ 0.1;
#X obj 38 87 osc~ 413;
#X obj 68 60 mtof;
#X obj 248 225 * 2;
#X obj 69 38 + 0;
#X obj 123 103 - 24;
#X obj 303 234 * 4;
#X obj 98 185 *~ 1;
#X obj 164 270 vcf~ 22;
#X obj 167 300 *~ 4;
#X obj 207 401 *~ 2;
#X connect 0 0 2 0;
#X connect 2 0 4 0;
#X connect 2 0 26 0;
#X connect 2 0 27 0;
#X connect 2 1 7 0;
#X connect 3 0 10 0;
#X connect 4 0 25 0;
#X connect 4 0 28 0;
#X connect 5 0 29 0;
#X connect 6 0 8 1;
#X connect 7 0 9 0;
#X connect 7 1 3 0;
#X connect 8 0 32 0;
#X connect 9 0 6 0;
#X connect 10 0 6 0;
#X connect 11 0 30 1;
#X connect 12 0 17 0;
#X connect 13 0 20 0;
#X connect 14 0 15 0;
#X connect 15 0 21 0;
#X connect 16 0 30 0;
#X connect 17 0 8 0;
#X connect 18 0 5 0;
#X connect 19 0 16 1;
#X connect 20 0 11 0;
#X connect 21 0 22 0;
#X connect 22 0 16 0;
#X connect 23 0 14 0;
#X connect 24 0 23 0;
#X connect 25 0 11 1;
#X connect 26 0 24 0;
#X connect 27 0 18 0;
#X connect 28 0 17 1;
#X connect 29 0 19 0;
#X connect 30 1 31 0;
#X connect 31 0 12 0;
#X connect 32 0 1 0;
