#N canvas 926 233 801 792 10;
#X obj 188 101 inlet;
#X obj 188 123 unpack f f;
#X obj 240 187 mtof;
#X obj 240 263 osc~;
#X obj 158 203 / 127;
#X obj 111 271 vline~;
#X obj 111 293 *~;
#X obj 113 340 *~;
#X obj 112 538 outlet~;
#X obj 130 176 select 0;
#X msg 90 78 70 127;
#X msg 84 111 70 0;
#X obj 112 451 cos~;
#X obj 112 421 +~ 0.25;
#X msg 75 202 0 100;
#X obj 115 490 *~ 0.9;
#X obj 267 220 * 2;
#X obj 202 306 *~ 1;
#X obj 150 223 * 1.4;
#X msg 147 243 \$1 5 \, 0.8 30 10;
#X connect 0 0 1 0;
#X connect 1 0 2 0;
#X connect 1 1 9 0;
#X connect 2 0 16 0;
#X connect 3 0 17 0;
#X connect 4 0 18 0;
#X connect 5 0 6 0;
#X connect 5 0 6 1;
#X connect 6 0 7 0;
#X connect 7 0 13 0;
#X connect 9 0 14 0;
#X connect 9 1 4 0;
#X connect 10 0 1 0;
#X connect 11 0 1 0;
#X connect 12 0 15 0;
#X connect 13 0 12 0;
#X connect 14 0 5 0;
#X connect 15 0 8 0;
#X connect 16 0 3 0;
#X connect 17 0 7 1;
#X connect 18 0 19 0;
#X connect 19 0 5 0;
