#N canvas 65 81 450 300 10;
#X obj 144 24 inlet;
#X obj 110 217 outlet;
#X obj 186 193 outlet;
#X obj 103 99 max 0;
#X obj 186 101 min 0;
#X obj 110 144 swap 1;
#X obj 110 166 -;
#X obj 186 156 + 1;
#X connect 0 0 3 0;
#X connect 0 0 4 0;
#X connect 3 0 5 0;
#X connect 4 0 7 0;
#X connect 5 0 6 0;
#X connect 5 1 6 1;
#X connect 6 0 1 0;
#X connect 7 0 2 0;
