#N canvas 463 418 990 495 10;
#X obj 372 77 inlet;
#X obj 365 129 pack f f f;
#X obj 392 447 outlet~;
#X obj 365 151 route 1 2 3 4 5 6;
#X obj 565 174 bng 15 250 50 0 empty empty empty 17 7 0 10 -262144
-1 -1;
#X obj 786 340 mono-guitar;
#X obj 278 345 mono-guitar;
#X obj 481 343 mono-guitar;
#X obj 373 344 mono-guitar;
#X obj 678 340 mono-guitar;
#X obj 576 341 mono-guitar;
#X obj 372 99 poly 6 1;
#X obj 392 425 *~ 1;
#X connect 0 0 11 0;
#X connect 1 0 3 0;
#X connect 3 0 6 0;
#X connect 3 1 8 0;
#X connect 3 2 7 0;
#X connect 3 3 10 0;
#X connect 3 4 9 0;
#X connect 3 5 5 0;
#X connect 3 6 4 0;
#X connect 5 0 12 0;
#X connect 6 0 12 0;
#X connect 7 0 12 0;
#X connect 8 0 12 0;
#X connect 9 0 12 0;
#X connect 10 0 12 0;
#X connect 11 0 1 0;
#X connect 11 1 1 1;
#X connect 11 2 1 2;
#X connect 12 0 2 0;
