#N canvas 337 258 521 746 10;
#X obj 79 434 soundfiler;
#X msg 300 476 resize \$1;
#X obj 79 86 loadbang;
#X obj 300 516 array define \$0-wavetable;
#X obj 300 193 f \$2;
#X obj 79 375 pack s s;
#X obj 132 341 symbol \$0-wavetable;
#X msg 79 399 read \$1 \$2;
#X obj 79 617 symbol \$0-wavetable;
#X obj 279 653 outlet size;
#X obj 79 648 outlet name;
#X obj 79 459 t b f f;
#X obj 233 11 inlet;
#X obj 233 33 route load;
#X obj 233 55 unpack s f;
#X obj 79 149 symbol \$1;
#X obj 79 176 t s b;
#X connect 0 0 11 0;
#X connect 1 0 3 0;
#X connect 2 0 15 0;
#X connect 4 0 1 0;
#X connect 5 0 7 0;
#X connect 6 0 5 1;
#X connect 7 0 0 0;
#X connect 8 0 10 0;
#X connect 11 0 8 0;
#X connect 11 1 9 0;
#X connect 11 2 1 0;
#X connect 12 0 13 0;
#X connect 13 0 14 0;
#X connect 14 0 15 0;
#X connect 14 1 4 0;
#X connect 15 0 16 0;
#X connect 16 0 5 0;
#X connect 16 1 4 0;
#X connect 16 1 6 0;
