#N canvas 166 319 345 437 10;
#X obj 145 70 pcm_loader \$1 \$2;
#X obj 145 34 inlet pcm;
#X obj 38 186 line~;
#X obj 38 281 tabread4~;
#X msg 145 157 set \$1;
#X obj 38 35 inlet trigger;
#X obj 38 79 /;
#X obj 38 57 swap 1000;
#X msg 38 163 0 \, \$2 \$1;
#X obj 38 129 pack f f;
#X obj 37 322 outlet~;
#X connect 0 0 4 0;
#X connect 0 1 9 1;
#X connect 1 0 0 0;
#X connect 2 0 3 0;
#X connect 3 0 10 0;
#X connect 4 0 3 0;
#X connect 5 0 7 0;
#X connect 6 0 9 0;
#X connect 7 0 6 0;
#X connect 7 1 6 1;
#X connect 8 0 2 0;
#X connect 9 0 8 0;
