#N canvas 496 350 450 300 10;
#X obj 172 37 inlet;
#X obj 172 59 select 0;
#X obj 224 109 / 127;
#X obj 179 189 vline~;
#X obj 179 211 *~;
#X obj 177 428 *~;
#X obj 177 490 outlet~;
#X obj 222 316 osc~ 250;
#X obj 222 338 +~ 0.25;
#X obj 222 382 cos~;
#X msg 158 118 0 100;
#X obj 222 360 *~ 1;
#X obj 221 290 +~ \$1;
#X obj 221 264 *~ 10;
#X msg 279 70 127;
#X msg 229 152 \$1 5 \, 0 200 5;
#X connect 0 0 1 0;
#X connect 1 0 10 0;
#X connect 1 1 2 0;
#X connect 2 0 15 0;
#X connect 3 0 4 0;
#X connect 3 0 4 1;
#X connect 4 0 5 0;
#X connect 4 0 13 0;
#X connect 5 0 6 0;
#X connect 7 0 8 0;
#X connect 8 0 11 0;
#X connect 9 0 5 1;
#X connect 10 0 3 0;
#X connect 11 0 9 0;
#X connect 12 0 7 0;
#X connect 13 0 12 0;
#X connect 14 0 2 0;
#X connect 15 0 3 0;
