#N canvas 631 287 450 300 10;
#X obj 228 11 inlet;
#X obj 228 95 until;
#X obj 228 181 f;
#X obj 274 180 + 1;
#X obj 329 181 bang;
#X obj 228 50 t b b;
#X obj 276 73 f \$1;
#X obj 243 215 moses \$2;
#X obj 228 244 outlet;
#X connect 0 0 5 0;
#X connect 1 0 2 0;
#X connect 2 0 3 0;
#X connect 2 0 7 0;
#X connect 2 0 8 0;
#X connect 3 0 2 1;
#X connect 4 0 1 1;
#X connect 5 0 1 0;
#X connect 5 1 6 0;
#X connect 6 0 2 1;
#X connect 7 1 4 0;
