#N canvas 261 364 1220 536 10;
#X obj 228 27 pgmin;
#X obj 321 222 tabwrite pgm;
#X obj 199 64 swap;
#X obj 186 94 pack f f;
#X text 287 46 swap to have channel \, program;
#X obj 186 116 route 10;
#X msg 186 140 -1;
#X obj 239 140 unpack f f;
#X obj 306 163 >> 3;
#X obj -3 53 notein;
#X obj 52 152 tabread pgm;
#N canvas 0 50 450 250 (subpatch) 0;
#X array pgm 17 float 2;
#X coords 1 15 16 -1 100 100 1 0 0;
#X restore 496 158 graph;
#X obj -13 475 outlet;
#X obj 207 314 outlet;
#X obj 207 286 pack f f;
#X obj 235 243 swap;
#X obj 266 198 f;
#N canvas 0 50 450 250 (subpatch) 0;
#X array cc 2048 float 2;
#X coords 0 127 2048 0 200 140 1 0 0;
#X restore 647 119 graph;
#X obj 846 373 print cc;
#X obj 1038 46 ctlin;
#X obj 944 283 pack f f f;
#X obj 944 212 swap;
#X obj 944 339 route 10;
#X obj 944 361 route 7 10;
#X msg 977 419 pan;
#X msg 913 419 volume;
#X obj 1085 240 tabwrite cc;
#X obj 1124 124 << 7;
#X obj 1101 167 |;
#X obj 1069 139 swap;
#X obj -46 215 swap;
#X text -77 24 unpack as [pitch \, velocity \, channel];
#X obj -13 405 pack f f f;
#X text -72 500 pack as [instrument \, pitch \, velocity] for easy
routing., f 66;
#X text 815 457 http://www.indiana.edu/~emusic/cntrlnumb.html;
#X connect 0 0 2 0;
#X connect 0 1 2 1;
#X connect 0 1 1 1;
#X connect 0 1 15 1;
#X connect 2 0 3 0;
#X connect 2 1 3 1;
#X connect 3 0 5 0;
#X connect 5 0 6 0;
#X connect 5 1 7 0;
#X connect 6 0 16 0;
#X connect 7 1 8 0;
#X connect 8 0 16 0;
#X connect 9 0 30 0;
#X connect 9 1 32 2;
#X connect 9 2 10 0;
#X connect 10 0 30 1;
#X connect 14 0 13 0;
#X connect 15 0 14 0;
#X connect 15 1 14 1;
#X connect 16 0 1 0;
#X connect 16 0 15 0;
#X connect 19 0 21 0;
#X connect 19 0 29 0;
#X connect 19 1 20 2;
#X connect 19 1 29 1;
#X connect 19 2 21 1;
#X connect 19 2 27 0;
#X connect 20 0 18 0;
#X connect 20 0 22 0;
#X connect 21 0 20 0;
#X connect 21 1 20 1;
#X connect 22 0 23 0;
#X connect 23 0 25 0;
#X connect 23 1 24 0;
#X connect 27 0 28 1;
#X connect 28 0 26 1;
#X connect 29 0 26 0;
#X connect 29 1 28 0;
#X connect 30 0 32 0;
#X connect 30 1 32 1;
#X connect 32 0 12 0;
