#N canvas 65 53 1855 1027 10;
#X obj 220 36 midi-pgm;
#X obj 1543 337 midi-drum;
#X obj 220 89 midi-patch;
#X obj 246 312 poly-guitar;
#X obj 461 312 poly-chroma;
#X obj 620 314 poly-brass;
#X obj 387 269 poly-bass;
#X obj 612 918 dac~;
#X obj 716 559 r volume;
#X obj 790 739 r pan;
#X obj 596 851 *~ 1;
#X obj 636 852 *~ 1;
#X floatatom 790 837 5 0 0 0 - - -, f 5;
#X floatatom 829 837 5 0 0 0 - - -, f 5;
#X obj 854 737 hsl 128 15 -1 1 0 0 empty empty empty -2 -8 0 10 -262144
-1 -1 6200 1;
#X obj 790 778 panner;
#X msg 851 713 0;
#X obj 738 906 print vol;
#X obj 609 752 clip~ -1 1;
#X obj 489 511 *~ 0.1;
#X obj 1544 446 *~ 0.5;
#X obj 607 695 *~ 0.5;
#X connect 0 0 2 0;
#X connect 1 0 20 0;
#X connect 2 3 3 0;
#X connect 2 4 6 0;
#X connect 2 6 4 0;
#X connect 2 7 5 0;
#X connect 2 16 1 0;
#X connect 3 0 19 0;
#X connect 4 0 19 0;
#X connect 5 0 19 0;
#X connect 6 0 19 0;
#X connect 8 0 17 0;
#X connect 8 0 21 1;
#X connect 9 0 15 0;
#X connect 10 0 7 0;
#X connect 11 0 7 1;
#X connect 14 0 15 0;
#X connect 15 0 10 1;
#X connect 15 0 12 0;
#X connect 15 0 17 0;
#X connect 15 1 11 1;
#X connect 15 1 13 0;
#X connect 15 1 17 0;
#X connect 16 0 14 0;
#X connect 18 0 10 0;
#X connect 18 0 11 0;
#X connect 19 0 21 0;
#X connect 20 0 21 0;
#X connect 21 0 18 0;
