#N canvas 542 221 843 792 10;
#X obj 199 25 inlet;
#X obj 199 47 unpack f f;
#X obj 222 229 mtof;
#X obj 248 312 osc~;
#X obj 141 138 / 127;
#X obj 93 313 vline~;
#X obj 93 335 *~;
#X obj 94 424 *~;
#X obj 94 719 outlet~;
#X obj 271 83 select 0;
#X msg 101 2 70 127;
#X msg 95 35 70 0;
#X msg 70 186 0 100;
#X obj 130 268 pack f f;
#X obj 138 180 t f f;
#X obj 122 221 * 1;
#X obj 508 229 / 127;
#X obj 460 404 vline~;
#X obj 460 426 *~;
#X obj 472 491 *~;
#X obj 593 439 *~ 1;
#X obj 626 379 noise~;
#X msg 97 288 \$1 5 \, \$2 340 5;
#X msg 465 379 \$1 5 \, 0 640 5;
#X msg 437 276 0 50;
#X obj 359 473 * 4;
#X obj 472 549 bp~ 1000 40;
#X obj 401 466 * 8;
#X obj 570 571 *~ 10;
#X obj 569 549 bp~ 1000 180;
#X obj 473 570 *~ 3;
#X obj 185 392 cos~;
#X obj 171 221 * 0.8;
#X obj 249 262 * 1;
#X obj 227 360 *~ 1.5;
#X obj 96 495 lop~ 2600 1;
#X connect 0 0 1 0;
#X connect 1 0 2 0;
#X connect 1 1 9 0;
#X connect 2 0 25 0;
#X connect 2 0 27 0;
#X connect 2 0 33 0;
#X connect 3 0 34 0;
#X connect 4 0 14 0;
#X connect 5 0 6 0;
#X connect 5 0 6 1;
#X connect 6 0 7 0;
#X connect 7 0 35 0;
#X connect 9 0 12 0;
#X connect 9 0 24 0;
#X connect 9 1 4 0;
#X connect 9 1 16 0;
#X connect 10 0 1 0;
#X connect 11 0 1 0;
#X connect 12 0 5 0;
#X connect 13 0 22 0;
#X connect 14 0 15 0;
#X connect 14 1 32 0;
#X connect 15 0 13 0;
#X connect 16 0 23 0;
#X connect 17 0 18 0;
#X connect 17 0 18 1;
#X connect 18 0 19 0;
#X connect 19 0 26 0;
#X connect 19 0 29 0;
#X connect 20 0 19 1;
#X connect 21 0 20 0;
#X connect 22 0 5 0;
#X connect 23 0 17 0;
#X connect 24 0 17 0;
#X connect 25 0 26 1;
#X connect 26 0 30 0;
#X connect 27 0 29 1;
#X connect 29 0 28 0;
#X connect 31 0 7 1;
#X connect 32 0 13 1;
#X connect 33 0 3 0;
#X connect 34 0 31 0;
#X connect 35 0 8 0;
