#N canvas 65 109 831 519 10;
#X obj 146 47 inlet;
#X obj 319 311 noise~;
#X obj 148 90 select 0;
#X obj 201 116 / 127;
#X obj 282 249 vline~;
#X obj 282 271 *~;
#X obj 288 341 *~;
#X obj 150 451 outlet~;
#X obj 323 125 print;
#X msg 235 44 127;
#X obj 88 239 vline~;
#X obj 88 261 *~;
#X obj 94 331 *~;
#X obj 167 242 osc~ 300;
#X obj 525 249 vline~;
#X obj 525 271 *~;
#X obj 531 341 *~;
#X obj 604 296 cos~;
#X obj 604 274 *~ 1;
#X obj 288 376 hip~ 1000 1;
#X msg 87 210 \$1 0 \, 0 50 0;
#X msg 281 220 \$1 0 \, 0.5 50 0 \, 0 500 50;
#X obj 424 165 * 0.2;
#X msg 523 220 \$1 0 \, 0 600 0;
#X connect 0 0 2 0;
#X connect 1 0 6 1;
#X connect 2 1 3 0;
#X connect 3 0 21 0;
#X connect 3 0 20 0;
#X connect 3 0 22 0;
#X connect 4 0 5 0;
#X connect 4 0 5 1;
#X connect 5 0 6 0;
#X connect 6 0 19 0;
#X connect 9 0 2 0;
#X connect 10 0 11 0;
#X connect 10 0 11 1;
#X connect 11 0 12 0;
#X connect 12 0 7 0;
#X connect 13 0 12 1;
#X connect 13 0 18 0;
#X connect 14 0 15 0;
#X connect 14 0 15 1;
#X connect 15 0 16 0;
#X connect 17 0 16 1;
#X connect 18 0 17 0;
#X connect 19 0 7 0;
#X connect 20 0 10 0;
#X connect 21 0 4 0;
#X connect 22 0 23 0;
#X connect 23 0 14 0;
