#N canvas 384 216 1304 716 10;
#X msg 43 78 3.14;
#X obj 43 29 loadbang;
#X obj 258 51 osc~ 440;
#X obj 263 166 dac~;
#X obj 86 113 f 3.14;
#X obj 43 157 print test1 expect 3_dot_14;
#X obj 86 230 print test2 expect 3_dot_14;
#X obj 259 93 *~ 0.2;
#X obj 644 88 inlet;
#X obj 644 110 unpack f f;
#X obj 695 244 mtof;
#X obj 721 327 osc~;
#X obj 566 328 vline~;
#X obj 566 350 *~;
#X obj 567 439 *~;
#X obj 561 132 select 0;
#X msg 790 85 70 0;
#X obj 567 512 cos~;
#X obj 567 477 +~ 0.25;
#X obj 722 277 * 1;
#X obj 774 331 osc~;
#X obj 775 281 * 2;
#X msg 530 259 0 100;
#X obj 688 387 *~ 1;
#X obj 595 236 * 1.2;
#X obj 603 283 pack f f;
#X obj 611 195 t f f;
#X obj 545 669 clip~ -1 1;
#X obj 655 453 * 1;
#X obj 559 570 lop~ 1600 4;
#X obj 643 236 * 0.5;
#X obj 553 636 *~ 4;
#X obj 614 153 / 127;
#X obj 528 747 dac~;
#X obj 545 691 *~ 0.3;
#X msg 448 93 50 127;
#X msg 570 303 \$1 5 \, 0 4000 5;
#X connect 0 0 5 0;
#X connect 1 0 0 0;
#X connect 1 0 4 0;
#X connect 1 0 35 0;
#X connect 4 0 6 0;
#X connect 7 0 3 0;
#X connect 7 0 3 1;
#X connect 8 0 9 0;
#X connect 9 0 10 0;
#X connect 9 1 15 0;
#X connect 10 0 19 0;
#X connect 10 0 21 0;
#X connect 10 0 28 0;
#X connect 11 0 23 0;
#X connect 12 0 13 0;
#X connect 12 0 13 1;
#X connect 13 0 14 0;
#X connect 14 0 18 0;
#X connect 15 0 22 0;
#X connect 15 1 32 0;
#X connect 16 0 9 0;
#X connect 17 0 29 0;
#X connect 18 0 17 0;
#X connect 19 0 11 0;
#X connect 20 0 23 0;
#X connect 21 0 20 0;
#X connect 22 0 12 0;
#X connect 23 0 14 1;
#X connect 24 0 25 0;
#X connect 25 0 36 0;
#X connect 26 0 24 0;
#X connect 26 1 30 0;
#X connect 27 0 34 0;
#X connect 29 0 31 0;
#X connect 30 0 25 1;
#X connect 31 0 27 0;
#X connect 32 0 26 0;
#X connect 34 0 33 0;
#X connect 34 0 33 1;
#X connect 35 0 9 0;
#X connect 36 0 12 0;
